<?xml version="1.0" encoding="UTF-8" standalone="no"?><svg xmlns="http://www.w3.org/2000/svg" xmlns:xlink="http://www.w3.org/1999/xlink" contentScriptType="application/ecmascript" contentStyleType="text/css" height="698px" preserveAspectRatio="none" style="width:427px;height:698px;" version="1.1" viewBox="0 0 427 698" width="427px" zoomAndPan="magnify"><defs><filter height="300%" id="f1ihtheg8gq1cq" width="300%" x="-1" y="-1"><feGaussianBlur result="blurOut" stdDeviation="2.0"/><feColorMatrix in="blurOut" result="blurOut2" type="matrix" values="0 0 0 0 0 0 0 0 0 0 0 0 0 0 0 0 0 0 .4 0"/><feOffset dx="4.0" dy="4.0" in="blurOut2" result="blurOut3"/><feBlend in="SourceGraphic" in2="blurOut3" mode="normal"/></filter></defs><g><!--MD5=[9ebf10cdb327ca13e0824e0988143711]
class TerrainSettings--><rect fill="#FEFECE" filter="url(#f1ihtheg8gq1cq)" height="99.2188" id="TerrainSettings" style="stroke: #A80036; stroke-width: 1.5;" width="128" x="6" y="212.5"/><ellipse cx="21" cy="228.5" fill="#ADD1B2" rx="11" ry="11" style="stroke: #A80036; stroke-width: 1.0;"/><path d="M23.9688,234.1406 Q23.3906,234.4375 22.75,234.5781 Q22.1094,234.7344 21.4063,234.7344 Q18.9063,234.7344 17.5781,233.0938 Q16.2656,231.4375 16.2656,228.3125 Q16.2656,225.1875 17.5781,223.5313 Q18.9063,221.875 21.4063,221.875 Q22.1094,221.875 22.75,222.0313 Q23.4063,222.1875 23.9688,222.4844 L23.9688,225.2031 Q23.3438,224.625 22.75,224.3594 Q22.1563,224.0781 21.5313,224.0781 Q20.1875,224.0781 19.5,225.1563 Q18.8125,226.2188 18.8125,228.3125 Q18.8125,230.4063 19.5,231.4844 Q20.1875,232.5469 21.5313,232.5469 Q22.1563,232.5469 22.75,232.2813 Q23.3438,232 23.9688,231.4219 L23.9688,234.1406 Z "/><text fill="#000000" font-family="sans-serif" font-size="12" lengthAdjust="spacingAndGlyphs" textLength="96" x="35" y="232.6543">TerrainSettings</text><line style="stroke: #A80036; stroke-width: 1.5;" x1="7" x2="133" y1="244.5" y2="244.5"/><text fill="#000000" font-family="sans-serif" font-size="11" lengthAdjust="spacingAndGlyphs" textLength="52" x="12" y="258.7104">width: int</text><text fill="#000000" font-family="sans-serif" font-size="11" lengthAdjust="spacingAndGlyphs" textLength="57" x="12" y="271.5151">height: int</text><text fill="#000000" font-family="sans-serif" font-size="11" lengthAdjust="spacingAndGlyphs" textLength="51" x="12" y="284.3198">style: str</text><text fill="#000000" font-family="sans-serif" font-size="11" lengthAdjust="spacingAndGlyphs" textLength="105" x="12" y="297.1245">seed: Optional[int]</text><line style="stroke: #A80036; stroke-width: 1.5;" x1="7" x2="133" y1="303.7188" y2="303.7188"/><!--MD5=[1b1562314ef50edf921bad0cd204186a]
class World--><rect fill="#FEFECE" filter="url(#f1ihtheg8gq1cq)" height="124.8281" id="World" style="stroke: #A80036; stroke-width: 1.5;" width="188" x="19" y="390.5"/><ellipse cx="91.25" cy="406.5" fill="#ADD1B2" rx="11" ry="11" style="stroke: #A80036; stroke-width: 1.0;"/><path d="M94.2188,412.1406 Q93.6406,412.4375 93,412.5781 Q92.3594,412.7344 91.6563,412.7344 Q89.1563,412.7344 87.8281,411.0938 Q86.5156,409.4375 86.5156,406.3125 Q86.5156,403.1875 87.8281,401.5313 Q89.1563,399.875 91.6563,399.875 Q92.3594,399.875 93,400.0313 Q93.6563,400.1875 94.2188,400.4844 L94.2188,403.2031 Q93.5938,402.625 93,402.3594 Q92.4063,402.0781 91.7813,402.0781 Q90.4375,402.0781 89.75,403.1563 Q89.0625,404.2188 89.0625,406.3125 Q89.0625,408.4063 89.75,409.4844 Q90.4375,410.5469 91.7813,410.5469 Q92.4063,410.5469 93,410.2813 Q93.5938,410 94.2188,409.4219 L94.2188,412.1406 Z "/><text fill="#000000" font-family="sans-serif" font-size="12" lengthAdjust="spacingAndGlyphs" textLength="35" x="111.75" y="410.6543">World</text><line style="stroke: #A80036; stroke-width: 1.5;" x1="20" x2="206" y1="422.5" y2="422.5"/><text fill="#000000" font-family="sans-serif" font-size="11" lengthAdjust="spacingAndGlyphs" textLength="66" x="25" y="436.7104">height_map</text><text fill="#000000" font-family="sans-serif" font-size="11" lengthAdjust="spacingAndGlyphs" textLength="51" x="25" y="449.5151">buildings</text><text fill="#000000" font-family="sans-serif" font-size="11" lengthAdjust="spacingAndGlyphs" textLength="99" x="25" y="462.3198">rubble_segments</text><line style="stroke: #A80036; stroke-width: 1.5;" x1="20" x2="206" y1="468.9141" y2="468.9141"/><ellipse cx="30" cy="479.9141" fill="#84BE84" rx="3" ry="3" style="stroke: #038048; stroke-width: 1.0;"/><text fill="#000000" font-family="sans-serif" font-size="11" lengthAdjust="spacingAndGlyphs" textLength="69" x="39" y="483.1245">surface_y(x)</text><ellipse cx="30" cy="492.7188" fill="#84BE84" rx="3" ry="3" style="stroke: #038048; stroke-width: 1.0;"/><text fill="#000000" font-family="sans-serif" font-size="11" lengthAdjust="spacingAndGlyphs" textLength="75" x="39" y="495.9292">carve_circle()</text><ellipse cx="30" cy="505.5234" fill="#84BE84" rx="3" ry="3" style="stroke: #038048; stroke-width: 1.0;"/><text fill="#000000" font-family="sans-serif" font-size="11" lengthAdjust="spacingAndGlyphs" textLength="162" x="39" y="508.7339">schedule_building_collapse()</text><!--MD5=[8560f289a30852a9f75d64e53f926853]
class Building--><rect fill="#FEFECE" filter="url(#f1ihtheg8gq1cq)" height="99.2188" id="Building" style="stroke: #A80036; stroke-width: 1.5;" width="164" x="31" y="588"/><ellipse cx="84.25" cy="604" fill="#ADD1B2" rx="11" ry="11" style="stroke: #A80036; stroke-width: 1.0;"/><path d="M87.2188,609.6406 Q86.6406,609.9375 86,610.0781 Q85.3594,610.2344 84.6563,610.2344 Q82.1563,610.2344 80.8281,608.5938 Q79.5156,606.9375 79.5156,603.8125 Q79.5156,600.6875 80.8281,599.0313 Q82.1563,597.375 84.6563,597.375 Q85.3594,597.375 86,597.5313 Q86.6563,597.6875 87.2188,597.9844 L87.2188,600.7031 Q86.5938,600.125 86,599.8594 Q85.4063,599.5781 84.7813,599.5781 Q83.4375,599.5781 82.75,600.6563 Q82.0625,601.7188 82.0625,603.8125 Q82.0625,605.9063 82.75,606.9844 Q83.4375,608.0469 84.7813,608.0469 Q85.4063,608.0469 86,607.7813 Q86.5938,607.5 87.2188,606.9219 L87.2188,609.6406 Z "/><text fill="#000000" font-family="sans-serif" font-size="12" lengthAdjust="spacingAndGlyphs" textLength="49" x="104.75" y="608.1543">Building</text><line style="stroke: #A80036; stroke-width: 1.5;" x1="32" x2="194" y1="620" y2="620"/><text fill="#000000" font-family="sans-serif" font-size="11" lengthAdjust="spacingAndGlyphs" textLength="10" x="37" y="634.2104">id</text><text fill="#000000" font-family="sans-serif" font-size="11" lengthAdjust="spacingAndGlyphs" textLength="152" x="37" y="647.0151">floors: List&lt;BuildingFloor&gt;</text><text fill="#000000" font-family="sans-serif" font-size="11" lengthAdjust="spacingAndGlyphs" textLength="81" x="37" y="659.8198">unstable: bool</text><text fill="#000000" font-family="sans-serif" font-size="11" lengthAdjust="spacingAndGlyphs" textLength="86" x="37" y="672.6245">collapsed: bool</text><line style="stroke: #A80036; stroke-width: 1.5;" x1="32" x2="194" y1="679.2188" y2="679.2188"/><!--MD5=[e3a50cf08d0c0cc2e56b10ad5dd922e4]
class Tank--><rect fill="#FEFECE" filter="url(#f1ihtheg8gq1cq)" height="150.4375" id="Tank" style="stroke: #A80036; stroke-width: 1.5;" width="153" x="263.5" y="378"/><ellipse cx="320.75" cy="394" fill="#ADD1B2" rx="11" ry="11" style="stroke: #A80036; stroke-width: 1.0;"/><path d="M323.7188,399.6406 Q323.1406,399.9375 322.5,400.0781 Q321.8594,400.2344 321.1563,400.2344 Q318.6563,400.2344 317.3281,398.5938 Q316.0156,396.9375 316.0156,393.8125 Q316.0156,390.6875 317.3281,389.0313 Q318.6563,387.375 321.1563,387.375 Q321.8594,387.375 322.5,387.5313 Q323.1563,387.6875 323.7188,387.9844 L323.7188,390.7031 Q323.0938,390.125 322.5,389.8594 Q321.9063,389.5781 321.2813,389.5781 Q319.9375,389.5781 319.25,390.6563 Q318.5625,391.7188 318.5625,393.8125 Q318.5625,395.9063 319.25,396.9844 Q319.9375,398.0469 321.2813,398.0469 Q321.9063,398.0469 322.5,397.7813 Q323.0938,397.5 323.7188,396.9219 L323.7188,399.6406 Z "/><text fill="#000000" font-family="sans-serif" font-size="12" lengthAdjust="spacingAndGlyphs" textLength="30" x="341.25" y="398.1543">Tank</text><line style="stroke: #A80036; stroke-width: 1.5;" x1="264.5" x2="415.5" y1="410" y2="410"/><text fill="#000000" font-family="sans-serif" font-size="11" lengthAdjust="spacingAndGlyphs" textLength="32" x="269.5" y="424.2104">name</text><text fill="#000000" font-family="sans-serif" font-size="11" lengthAdjust="spacingAndGlyphs" textLength="16" x="269.5" y="437.0151">x/y</text><text fill="#000000" font-family="sans-serif" font-size="11" lengthAdjust="spacingAndGlyphs" textLength="34" x="269.5" y="449.8198">facing</text><text fill="#000000" font-family="sans-serif" font-size="11" lengthAdjust="spacingAndGlyphs" textLength="14" x="269.5" y="462.6245">hp</text><text fill="#000000" font-family="sans-serif" font-size="11" lengthAdjust="spacingAndGlyphs" textLength="69" x="269.5" y="475.4292">turret_angle</text><text fill="#000000" font-family="sans-serif" font-size="11" lengthAdjust="spacingAndGlyphs" textLength="66" x="269.5" y="488.2339">shot_power</text><line style="stroke: #A80036; stroke-width: 1.5;" x1="264.5" x2="415.5" y1="494.8281" y2="494.8281"/><ellipse cx="274.5" cy="505.8281" fill="#84BE84" rx="3" ry="3" style="stroke: #038048; stroke-width: 1.0;"/><text fill="#000000" font-family="sans-serif" font-size="11" lengthAdjust="spacingAndGlyphs" textLength="127" x="283.5" y="509.0386">move(world, direction)</text><ellipse cx="274.5" cy="518.6328" fill="#84BE84" rx="3" ry="3" style="stroke: #038048; stroke-width: 1.0;"/><text fill="#000000" font-family="sans-serif" font-size="11" lengthAdjust="spacingAndGlyphs" textLength="75" x="283.5" y="521.8433">raise_turret()</text><!--MD5=[b6dcce5e5ef3c84b0b048d11301373dd]
class Game--><rect fill="#FEFECE" filter="url(#f1ihtheg8gq1cq)" height="112.0234" id="Game" style="stroke: #A80036; stroke-width: 1.5;" width="140" x="169" y="206"/><ellipse cx="216.75" cy="222" fill="#ADD1B2" rx="11" ry="11" style="stroke: #A80036; stroke-width: 1.0;"/><path d="M219.7188,227.6406 Q219.1406,227.9375 218.5,228.0781 Q217.8594,228.2344 217.1563,228.2344 Q214.6563,228.2344 213.3281,226.5938 Q212.0156,224.9375 212.0156,221.8125 Q212.0156,218.6875 213.3281,217.0313 Q214.6563,215.375 217.1563,215.375 Q217.8594,215.375 218.5,215.5313 Q219.1563,215.6875 219.7188,215.9844 L219.7188,218.7031 Q219.0938,218.125 218.5,217.8594 Q217.9063,217.5781 217.2813,217.5781 Q215.9375,217.5781 215.25,218.6563 Q214.5625,219.7188 214.5625,221.8125 Q214.5625,223.9063 215.25,224.9844 Q215.9375,226.0469 217.2813,226.0469 Q217.9063,226.0469 218.5,225.7813 Q219.0938,225.5 219.7188,224.9219 L219.7188,227.6406 Z "/><text fill="#000000" font-family="sans-serif" font-size="12" lengthAdjust="spacingAndGlyphs" textLength="36" x="237.25" y="226.1543">Game</text><line style="stroke: #A80036; stroke-width: 1.5;" x1="170" x2="308" y1="238" y2="238"/><text fill="#000000" font-family="sans-serif" font-size="11" lengthAdjust="spacingAndGlyphs" textLength="70" x="175" y="252.2104">world: World</text><text fill="#000000" font-family="sans-serif" font-size="11" lengthAdjust="spacingAndGlyphs" textLength="104" x="175" y="265.0151">tanks: List&lt;Tank&gt;</text><text fill="#000000" font-family="sans-serif" font-size="11" lengthAdjust="spacingAndGlyphs" textLength="38" x="175" y="277.8198">gravity</text><line style="stroke: #A80036; stroke-width: 1.5;" x1="170" x2="308" y1="284.4141" y2="284.4141"/><ellipse cx="180" cy="295.4141" fill="#84BE84" rx="3" ry="3" style="stroke: #038048; stroke-width: 1.0;"/><text fill="#000000" font-family="sans-serif" font-size="11" lengthAdjust="spacingAndGlyphs" textLength="91" x="189" y="298.6245">step_projectile()</text><ellipse cx="180" cy="308.2188" fill="#84BE84" rx="3" ry="3" style="stroke: #038048; stroke-width: 1.0;"/><text fill="#000000" font-family="sans-serif" font-size="11" lengthAdjust="spacingAndGlyphs" textLength="114" x="189" y="311.4292">apply_shot_effects()</text><!--MD5=[ee2881c033a007ed7897a49b07c40cd1]
class GameSession--><rect fill="#FEFECE" filter="url(#f1ihtheg8gq1cq)" height="137.6328" id="GameSession" style="stroke: #A80036; stroke-width: 1.5;" width="160" x="220" y="8"/><ellipse cx="254.35" cy="24" fill="#ADD1B2" rx="11" ry="11" style="stroke: #A80036; stroke-width: 1.0;"/><path d="M257.3188,29.6406 Q256.7406,29.9375 256.1,30.0781 Q255.4594,30.2344 254.7563,30.2344 Q252.2563,30.2344 250.9281,28.5938 Q249.6156,26.9375 249.6156,23.8125 Q249.6156,20.6875 250.9281,19.0313 Q252.2563,17.375 254.7563,17.375 Q255.4594,17.375 256.1,17.5313 Q256.7563,17.6875 257.3188,17.9844 L257.3188,20.7031 Q256.6938,20.125 256.1,19.8594 Q255.5063,19.5781 254.8813,19.5781 Q253.5375,19.5781 252.85,20.6563 Q252.1625,21.7188 252.1625,23.8125 Q252.1625,25.9063 252.85,26.9844 Q253.5375,28.0469 254.8813,28.0469 Q255.5063,28.0469 256.1,27.7813 Q256.6938,27.5 257.3188,26.9219 L257.3188,29.6406 Z "/><text fill="#000000" font-family="sans-serif" font-size="12" lengthAdjust="spacingAndGlyphs" textLength="85" x="272.65" y="28.1543">GameSession</text><line style="stroke: #A80036; stroke-width: 1.5;" x1="221" x2="379" y1="40" y2="40"/><text fill="#000000" font-family="sans-serif" font-size="11" lengthAdjust="spacingAndGlyphs" textLength="74" x="226" y="54.2104">game: Game</text><text fill="#000000" font-family="sans-serif" font-size="11" lengthAdjust="spacingAndGlyphs" textLength="82" x="226" y="67.0151">current_player</text><text fill="#000000" font-family="sans-serif" font-size="11" lengthAdjust="spacingAndGlyphs" textLength="91" x="226" y="79.8198">projectile_result</text><text fill="#000000" font-family="sans-serif" font-size="11" lengthAdjust="spacingAndGlyphs" textLength="148" x="226" y="92.6245">superpower_active_player</text><line style="stroke: #A80036; stroke-width: 1.5;" x1="221" x2="379" y1="99.2188" y2="99.2188"/><ellipse cx="231" cy="110.2188" fill="#84BE84" rx="3" ry="3" style="stroke: #038048; stroke-width: 1.0;"/><text fill="#000000" font-family="sans-serif" font-size="11" lengthAdjust="spacingAndGlyphs" textLength="97" x="240" y="113.4292">begin_projectile()</text><ellipse cx="231" cy="123.0234" fill="#84BE84" rx="3" ry="3" style="stroke: #038048; stroke-width: 1.0;"/><text fill="#000000" font-family="sans-serif" font-size="11" lengthAdjust="spacingAndGlyphs" textLength="105" x="240" y="126.2339">update_projectile()</text><ellipse cx="231" cy="135.8281" fill="#84BE84" rx="3" ry="3" style="stroke: #038048; stroke-width: 1.0;"/><text fill="#000000" font-family="sans-serif" font-size="11" lengthAdjust="spacingAndGlyphs" textLength="108" x="240" y="139.0386">resolve_projectile()</text><!--MD5=[8d11368af5d0ca3e38771c08748d313d]
link TerrainSettings to World--><path d="M81.07,311.67 C86.16,334.03 92.28,360.91 97.79,385.14 " fill="none" id="TerrainSettings-&gt;World" style="stroke: #A80036; stroke-width: 1.0;"/><polygon fill="#A80036" points="98.95,390.26,100.8425,380.5947,97.8351,385.3859,93.0439,382.3785,98.95,390.26" style="stroke: #A80036; stroke-width: 1.0;"/><!--MD5=[126822a404b8bf4cdb4d8d79c2edfc45]
link World to Building--><path d="M113,515.53 C113,537.37 113,561.77 113,582.89 " fill="none" id="World-&gt;Building" style="stroke: #A80036; stroke-width: 1.0;"/><polygon fill="#A80036" points="113,587.91,117,578.91,113,582.91,109,578.91,113,587.91" style="stroke: #A80036; stroke-width: 1.0;"/><!--MD5=[bf69e1a07197ad305e13645410bdc507]
link Game to World--><path d="M202.22,318.17 C188.05,339.42 171.74,363.9 156.96,386.06 " fill="none" id="Game-&gt;World" style="stroke: #A80036; stroke-width: 1.0;"/><polygon fill="#A80036" points="154.03,390.46,162.3505,385.1903,156.8035,386.2997,155.6941,380.7527,154.03,390.46" style="stroke: #A80036; stroke-width: 1.0;"/><!--MD5=[cd4798e638ed8718a97d66699ce47e49]
link Game to Tank--><path d="M268.48,318.17 C277.66,335.35 287.97,354.64 297.84,373.1 " fill="none" id="Game-&gt;Tank" style="stroke: #A80036; stroke-width: 1.0;"/><polygon fill="#A80036" points="300.34,377.78,299.6159,367.9578,297.9789,373.3726,292.5641,371.7356,300.34,377.78" style="stroke: #A80036; stroke-width: 1.0;"/><!--MD5=[ba43998cb50901f5d35a27c88c159ceb]
link GameSession to Game--><path d="M277.29,146.14 C271.28,164.16 264.84,183.48 258.99,201.03 " fill="none" id="GameSession-&gt;Game" style="stroke: #A80036; stroke-width: 1.0;"/><polygon fill="#A80036" points="257.36,205.93,264.0074,198.6628,258.9454,201.188,256.4202,196.1261,257.36,205.93" style="stroke: #A80036; stroke-width: 1.0;"/><!--MD5=[af37838a5180ecc99d77ec4288098fcb]
link GameSession to Tank--><path d="M316.41,146.08 C320.49,165.35 324.43,186.41 327,206 C334.27,261.44 337.5,324.41 338.93,372.76 " fill="none" id="GameSession-&gt;Tank" style="stroke: #A80036; stroke-width: 1.0;"/><polygon fill="#A80036" points="339.08,377.99,342.8206,368.8791,338.9368,372.9921,334.8239,369.1083,339.08,377.99" style="stroke: #A80036; stroke-width: 1.0;"/><!--MD5=[ae12657be582607019780b81ea93b580]
@startuml DomainModel
class TerrainSettings {
  width: int
  height: int
  style: str
  seed: Optional[int]
}
class World {
  height_map
  buildings
  rubble_segments
  +surface_y(x)
  +carve_circle()
  +schedule_building_collapse()
}
class Building {
  id
  floors: List<BuildingFloor>
  unstable: bool
  collapsed: bool
}
class Tank {
  name
  x/y
  facing
  hp
  turret_angle
  shot_power
  +move(world, direction)
  +raise_turret()
}
class Game {
  world: World
  tanks: List<Tank>
  gravity
  +step_projectile()
  +apply_shot_effects()
}
class GameSession {
  game: Game
  current_player
  projectile_result
  superpower_active_player
  +begin_projectile()
  +update_projectile()
  +resolve_projectile()
}
TerrainSettings - -> World
World - -> Building
Game - -> World
Game - -> Tank
GameSession - -> Game
GameSession - -> Tank
@enduml

PlantUML version 1.2020.02(Sun Mar 01 11:22:07 CET 2020)
(GPL source distribution)
Java Runtime: OpenJDK Runtime Environment
JVM: OpenJDK 64-Bit Server VM
Java Version: 21.0.8+9-Ubuntu-0ubuntu124.04.1
Operating System: Linux
Default Encoding: UTF-8
Language: en
Country: null
--></g></svg>