<?xml version="1.0" encoding="UTF-8" standalone="no"?><svg xmlns="http://www.w3.org/2000/svg" xmlns:xlink="http://www.w3.org/1999/xlink" contentScriptType="application/ecmascript" contentStyleType="text/css" height="411px" preserveAspectRatio="none" style="width:1526px;height:411px;" version="1.1" viewBox="0 0 1526 411" width="1526px" zoomAndPan="magnify"><defs><filter height="300%" id="f1fqebe8ku2ooi" width="300%" x="-1" y="-1"><feGaussianBlur result="blurOut" stdDeviation="2.0"/><feColorMatrix in="blurOut" result="blurOut2" type="matrix" values="0 0 0 0 0 0 0 0 0 0 0 0 0 0 0 0 0 0 .4 0"/><feOffset dx="4.0" dy="4.0" in="blurOut2" result="blurOut3"/><feBlend in="SourceGraphic" in2="blurOut3" mode="normal"/></filter></defs><g><!--MD5=[e9f70800539c9a1f5bb4789b9b12b37a]
cluster Core Domain--><polygon fill="#FFFFFF" filter="url(#f1fqebe8ku2ooi)" points="1323,120,1430,120,1437,142.2969,1504,142.2969,1504,399,1323,399,1323,120" style="stroke: #000000; stroke-width: 1.5;"/><line style="stroke: #000000; stroke-width: 1.5;" x1="1323" x2="1437" y1="142.2969" y2="142.2969"/><text fill="#000000" font-family="sans-serif" font-size="14" font-weight="bold" lengthAdjust="spacingAndGlyphs" textLength="101" x="1327" y="134.9951">Core Domain</text><!--MD5=[e4df37d30c9d87310821f0ec89e26072]
cluster Presentation (pygame)--><polygon fill="#FFFFFF" filter="url(#f1fqebe8ku2ooi)" points="22,24,208,24,215,46.2969,1299,46.2969,1299,207,22,207,22,24" style="stroke: #000000; stroke-width: 1.5;"/><line style="stroke: #000000; stroke-width: 1.5;" x1="22" x2="215" y1="46.2969" y2="46.2969"/><text fill="#000000" font-family="sans-serif" font-size="14" font-weight="bold" lengthAdjust="spacingAndGlyphs" textLength="180" x="26" y="38.9951">Presentation (pygame)</text><!--MD5=[e528c6ab46f6025ca6b6e890355e65a8]
entity Game--><rect fill="#FEFECE" filter="url(#f1fqebe8ku2ooi)" height="36.2969" style="stroke: #A80036; stroke-width: 1.5;" width="61" x="1339.5" y="251"/><rect fill="#FEFECE" height="5" style="stroke: #A80036; stroke-width: 1.5;" width="10" x="1334.5" y="256"/><rect fill="#FEFECE" height="5" style="stroke: #A80036; stroke-width: 1.5;" width="10" x="1334.5" y="277.2969"/><text fill="#000000" font-family="sans-serif" font-size="14" lengthAdjust="spacingAndGlyphs" textLength="41" x="1349.5" y="273.9951">Game</text><!--MD5=[97b1b15109f4274c3fb638ac93418c1c]
entity World--><rect fill="#FEFECE" filter="url(#f1fqebe8ku2ooi)" height="36.2969" style="stroke: #A80036; stroke-width: 1.5;" width="59" x="1339.5" y="347"/><rect fill="#FEFECE" height="5" style="stroke: #A80036; stroke-width: 1.5;" width="10" x="1334.5" y="352"/><rect fill="#FEFECE" height="5" style="stroke: #A80036; stroke-width: 1.5;" width="10" x="1334.5" y="373.2969"/><text fill="#000000" font-family="sans-serif" font-size="14" lengthAdjust="spacingAndGlyphs" textLength="39" x="1349.5" y="369.9951">World</text><!--MD5=[ae8e9f2736946deef16e6f359038bf0e]
entity Tank--><rect fill="#FEFECE" filter="url(#f1fqebe8ku2ooi)" height="36.2969" style="stroke: #A80036; stroke-width: 1.5;" width="54" x="1434" y="347"/><rect fill="#FEFECE" height="5" style="stroke: #A80036; stroke-width: 1.5;" width="10" x="1429" y="352"/><rect fill="#FEFECE" height="5" style="stroke: #A80036; stroke-width: 1.5;" width="10" x="1429" y="373.2969"/><text fill="#000000" font-family="sans-serif" font-size="14" lengthAdjust="spacingAndGlyphs" textLength="34" x="1444" y="369.9951">Tank</text><!--MD5=[13e893caadd8b8935093732fa4ce0cce]
entity GameSession--><rect fill="#FEFECE" filter="url(#f1fqebe8ku2ooi)" height="36.2969" style="stroke: #A80036; stroke-width: 1.5;" width="116" x="1339" y="155"/><rect fill="#FEFECE" height="5" style="stroke: #A80036; stroke-width: 1.5;" width="10" x="1334" y="160"/><rect fill="#FEFECE" height="5" style="stroke: #A80036; stroke-width: 1.5;" width="10" x="1334" y="181.2969"/><text fill="#000000" font-family="sans-serif" font-size="14" lengthAdjust="spacingAndGlyphs" textLength="96" x="1349" y="177.9951">GameSession</text><!--MD5=[93e7bf882bb5bac8482102f96969063b]
entity PygameTanx--><rect fill="#FEFECE" filter="url(#f1fqebe8ku2ooi)" height="36.2969" style="stroke: #A80036; stroke-width: 1.5;" width="108" x="620" y="59"/><rect fill="#FEFECE" height="5" style="stroke: #A80036; stroke-width: 1.5;" width="10" x="615" y="64"/><rect fill="#FEFECE" height="5" style="stroke: #A80036; stroke-width: 1.5;" width="10" x="615" y="85.2969"/><text fill="#000000" font-family="sans-serif" font-size="14" lengthAdjust="spacingAndGlyphs" textLength="88" x="630" y="81.9951">PygameTanx</text><!--MD5=[2ca94a5b6b6bd18f1989dff60a236ced]
entity DisplayManager--><rect fill="#FEFECE" filter="url(#f1fqebe8ku2ooi)" height="36.2969" style="stroke: #A80036; stroke-width: 1.5;" width="129" x="38.5" y="155"/><rect fill="#FEFECE" height="5" style="stroke: #A80036; stroke-width: 1.5;" width="10" x="33.5" y="160"/><rect fill="#FEFECE" height="5" style="stroke: #A80036; stroke-width: 1.5;" width="10" x="33.5" y="181.2969"/><text fill="#000000" font-family="sans-serif" font-size="14" lengthAdjust="spacingAndGlyphs" textLength="109" x="48.5" y="177.9951">DisplayManager</text><!--MD5=[c0d5a20ed6db17bb501e3d6441b453df]
entity InputHandler--><rect fill="#FEFECE" filter="url(#f1fqebe8ku2ooi)" height="36.2969" style="stroke: #A80036; stroke-width: 1.5;" width="108" x="203" y="155"/><rect fill="#FEFECE" height="5" style="stroke: #A80036; stroke-width: 1.5;" width="10" x="198" y="160"/><rect fill="#FEFECE" height="5" style="stroke: #A80036; stroke-width: 1.5;" width="10" x="198" y="181.2969"/><text fill="#000000" font-family="sans-serif" font-size="14" lengthAdjust="spacingAndGlyphs" textLength="88" x="213" y="177.9951">InputHandler</text><!--MD5=[5c9cf34a4c01c9363786ad111be2bbab]
entity Renderer--><rect fill="#FEFECE" filter="url(#f1fqebe8ku2ooi)" height="36.2969" style="stroke: #A80036; stroke-width: 1.5;" width="85" x="346.5" y="155"/><rect fill="#FEFECE" height="5" style="stroke: #A80036; stroke-width: 1.5;" width="10" x="341.5" y="160"/><rect fill="#FEFECE" height="5" style="stroke: #A80036; stroke-width: 1.5;" width="10" x="341.5" y="181.2969"/><text fill="#000000" font-family="sans-serif" font-size="14" lengthAdjust="spacingAndGlyphs" textLength="65" x="356.5" y="177.9951">Renderer</text><!--MD5=[ba9f9c616a73899e8deccb73e91314e7]
entity EffectsSystem--><rect fill="#FEFECE" filter="url(#f1fqebe8ku2ooi)" height="36.2969" style="stroke: #A80036; stroke-width: 1.5;" width="118" x="467" y="155"/><rect fill="#FEFECE" height="5" style="stroke: #A80036; stroke-width: 1.5;" width="10" x="462" y="160"/><rect fill="#FEFECE" height="5" style="stroke: #A80036; stroke-width: 1.5;" width="10" x="462" y="181.2969"/><text fill="#000000" font-family="sans-serif" font-size="14" lengthAdjust="spacingAndGlyphs" textLength="98" x="477" y="177.9951">EffectsSystem</text><!--MD5=[51d0e03580fced8b017d01dbc1af9602]
entity Soundscape--><rect fill="#FEFECE" filter="url(#f1fqebe8ku2ooi)" height="36.2969" style="stroke: #A80036; stroke-width: 1.5;" width="107" x="620.5" y="155"/><rect fill="#FEFECE" height="5" style="stroke: #A80036; stroke-width: 1.5;" width="10" x="615.5" y="160"/><rect fill="#FEFECE" height="5" style="stroke: #A80036; stroke-width: 1.5;" width="10" x="615.5" y="181.2969"/><text fill="#000000" font-family="sans-serif" font-size="14" lengthAdjust="spacingAndGlyphs" textLength="87" x="630.5" y="177.9951">Soundscape</text><!--MD5=[aefdf3e0f3a8fc2194bfd84c312beaff]
entity SuperpowerManager--><rect fill="#FEFECE" filter="url(#f1fqebe8ku2ooi)" height="36.2969" style="stroke: #A80036; stroke-width: 1.5;" width="164" x="763" y="155"/><rect fill="#FEFECE" height="5" style="stroke: #A80036; stroke-width: 1.5;" width="10" x="758" y="160"/><rect fill="#FEFECE" height="5" style="stroke: #A80036; stroke-width: 1.5;" width="10" x="758" y="181.2969"/><text fill="#000000" font-family="sans-serif" font-size="14" lengthAdjust="spacingAndGlyphs" textLength="144" x="773" y="177.9951">SuperpowerManager</text><!--MD5=[450d1c6432730291987d0130365796df]
entity ComputerOpponent--><rect fill="#FEFECE" filter="url(#f1fqebe8ku2ooi)" height="36.2969" style="stroke: #A80036; stroke-width: 1.5;" width="159" x="962.5" y="155"/><rect fill="#FEFECE" height="5" style="stroke: #A80036; stroke-width: 1.5;" width="10" x="957.5" y="160"/><rect fill="#FEFECE" height="5" style="stroke: #A80036; stroke-width: 1.5;" width="10" x="957.5" y="181.2969"/><text fill="#000000" font-family="sans-serif" font-size="14" lengthAdjust="spacingAndGlyphs" textLength="139" x="972.5" y="177.9951">ComputerOpponent</text><!--MD5=[2a79accf847e9d9f81bb0aef91a939dc]
entity MenuController--><rect fill="#FEFECE" filter="url(#f1fqebe8ku2ooi)" height="36.2969" style="stroke: #A80036; stroke-width: 1.5;" width="126" x="1157" y="155"/><rect fill="#FEFECE" height="5" style="stroke: #A80036; stroke-width: 1.5;" width="10" x="1152" y="160"/><rect fill="#FEFECE" height="5" style="stroke: #A80036; stroke-width: 1.5;" width="10" x="1152" y="181.2969"/><text fill="#000000" font-family="sans-serif" font-size="14" lengthAdjust="spacingAndGlyphs" textLength="106" x="1167" y="177.9951">MenuController</text><!--MD5=[bf69e1a07197ad305e13645410bdc507]
link Game to World--><path d="M1369.82,287.24 C1369.65,302.48 1369.42,324.81 1369.24,341.46 " fill="none" id="Game-&gt;World" style="stroke: #A80036; stroke-width: 1.0;"/><polygon fill="#A80036" points="1369.18,346.87,1373.2826,337.9163,1369.2371,341.8703,1365.2831,337.8249,1369.18,346.87" style="stroke: #A80036; stroke-width: 1.0;"/><!--MD5=[cd4798e638ed8718a97d66699ce47e49]
link Game to Tank--><path d="M1386.69,287.24 C1401.96,303.01 1424.57,326.37 1440.84,343.17 " fill="none" id="Game-&gt;Tank" style="stroke: #A80036; stroke-width: 1.0;"/><polygon fill="#A80036" points="1444.42,346.87,1441.0338,337.6216,1440.9422,343.2777,1435.2861,343.1861,1444.42,346.87" style="stroke: #A80036; stroke-width: 1.0;"/><!--MD5=[ba43998cb50901f5d35a27c88c159ceb]
link GameSession to Game--><path d="M1392.05,191.24 C1387.63,206.61 1381.15,229.2 1376.35,245.89 " fill="none" id="GameSession-&gt;Game" style="stroke: #A80036; stroke-width: 1.0;"/><polygon fill="#A80036" points="1374.92,250.87,1381.2593,243.3326,1376.3068,246.0662,1373.5732,241.1137,1374.92,250.87" style="stroke: #A80036; stroke-width: 1.0;"/><!--MD5=[af37838a5180ecc99d77ec4288098fcb]
link GameSession to Tank--><path d="M1402.79,191.2 C1414.45,225.82 1440.74,303.86 1453.62,342.08 " fill="none" id="GameSession-&gt;Tank" style="stroke: #A80036; stroke-width: 1.0;"/><polygon fill="#A80036" points="1455.27,346.98,1456.1833,337.1736,1453.6717,342.2423,1448.603,339.7308,1455.27,346.98" style="stroke: #A80036; stroke-width: 1.0;"/><!--MD5=[c9c9453591d5e8ddeefd6ba79012c8ad]
link PygameTanx to GameSession--><path d="M728.27,77.56 C859.94,77.03 1193.3,79.09 1299,112 C1325.92,120.38 1352.98,137.79 1371.82,151.71 " fill="none" id="PygameTanx-&gt;GameSession" style="stroke: #A80036; stroke-width: 1.0;"/><polygon fill="#A80036" points="1375.95,154.8,1371.1353,146.2082,1371.9449,151.8068,1366.3463,152.6164,1375.95,154.8" style="stroke: #A80036; stroke-width: 1.0;"/><!--MD5=[ac944433554981ad837560c1f803b4dc]
link PygameTanx to DisplayManager--><path d="M619.76,78 C509.61,78.62 263.53,83.29 185,112 C161.79,120.49 139.42,137.66 123.92,151.47 " fill="none" id="PygameTanx-&gt;DisplayManager" style="stroke: #A80036; stroke-width: 1.0;"/><polygon fill="#A80036" points="120.14,154.9,129.499,151.8326,123.8494,151.5473,124.1347,145.8976,120.14,154.9" style="stroke: #A80036; stroke-width: 1.0;"/><!--MD5=[9efcc16f98bd40c6a290e6b59d63eb17]
link PygameTanx to InputHandler--><path d="M619.94,79.47 C536.38,82.39 380.15,90.59 329,112 C308.28,120.67 288.98,137.43 275.58,151.04 " fill="none" id="PygameTanx-&gt;InputHandler" style="stroke: #A80036; stroke-width: 1.0;"/><polygon fill="#A80036" points="271.96,154.79,281.0866,151.0879,275.4307,151.1908,275.3278,145.5349,271.96,154.79" style="stroke: #A80036; stroke-width: 1.0;"/><!--MD5=[c6512be482e9dedff30dfe932d5508ad]
link PygameTanx to Renderer--><path d="M619.95,82.26 C563.15,87.43 478.09,97.31 449,112 C431.12,121.03 415.32,137.39 404.42,150.74 " fill="none" id="PygameTanx-&gt;Renderer" style="stroke: #A80036; stroke-width: 1.0;"/><polygon fill="#A80036" points="401.2,154.78,409.9417,150.2431,404.32,150.8729,403.6903,145.2512,401.2,154.78" style="stroke: #A80036; stroke-width: 1.0;"/><!--MD5=[aaecdd519f0ddf90c6680680b213fa26]
link PygameTanx to EffectsSystem--><path d="M634.51,95.06 C624.02,100.08 612.88,105.89 603,112 C584.03,123.74 564.21,139.27 549.43,151.59 " fill="none" id="PygameTanx-&gt;EffectsSystem" style="stroke: #A80036; stroke-width: 1.0;"/><polygon fill="#A80036" points="545.4,154.97,554.8648,152.2466,549.2294,151.755,549.7209,146.1196,545.4,154.97" style="stroke: #A80036; stroke-width: 1.0;"/><!--MD5=[502550e54010c1e47bae9bc1ce536c13]
link PygameTanx to Soundscape--><path d="M674,95.24 C674,110.48 674,132.81 674,149.46 " fill="none" id="PygameTanx-&gt;Soundscape" style="stroke: #A80036; stroke-width: 1.0;"/><polygon fill="#A80036" points="674,154.87,678,145.87,674,149.87,670,145.87,674,154.87" style="stroke: #A80036; stroke-width: 1.0;"/><!--MD5=[70141b0bfc54ee5ea310598a893d78f7]
link PygameTanx to SuperpowerManager--><path d="M711.55,95.17 C722.44,100.37 734.29,106.24 745,112 C768.37,124.57 794.03,140 813.5,152.06 " fill="none" id="PygameTanx-&gt;SuperpowerManager" style="stroke: #A80036; stroke-width: 1.0;"/><polygon fill="#A80036" points="817.81,154.74,812.2857,146.5864,813.566,152.0964,808.0559,153.3768,817.81,154.74" style="stroke: #A80036; stroke-width: 1.0;"/><!--MD5=[f935cff33ad8a8e56f9f55f00882b6d5]
link PygameTanx to ComputerOpponent--><path d="M728.04,78.16 C783.66,79.85 872.11,86.79 944,112 C970.25,121.21 996.98,138.19 1015.88,151.74 " fill="none" id="PygameTanx-&gt;ComputerOpponent" style="stroke: #A80036; stroke-width: 1.0;"/><polygon fill="#A80036" points="1020.03,154.75,1015.0879,146.2309,1015.9808,151.8168,1010.3948,152.7096,1020.03,154.75" style="stroke: #A80036; stroke-width: 1.0;"/><!--MD5=[cf9082728d1d344117fe973a0594a3fc]
link PygameTanx to MenuController--><path d="M728.02,78.2 C833.94,79.19 1065.01,84.55 1139,112 C1161.99,120.53 1184.08,137.7 1199.37,151.49 " fill="none" id="PygameTanx-&gt;MenuController" style="stroke: #A80036; stroke-width: 1.0;"/><polygon fill="#A80036" points="1203.11,154.92,1199.169,145.894,1199.4207,151.5453,1193.7694,151.7969,1203.11,154.92" style="stroke: #A80036; stroke-width: 1.0;"/><!--MD5=[e10a5bc48981307350c4146ef3767ef1]
link ComputerOpponent to Game--><path d="M1078.28,191.11 C1096.26,199.13 1118.47,208.36 1139,215 C1206.67,236.88 1288.26,253.37 1334.13,261.78 " fill="none" id="ComputerOpponent-&gt;Game" style="stroke: #A80036; stroke-width: 1.0;"/><polygon fill="#A80036" points="1339.27,262.72,1331.1378,257.1641,1334.3518,261.8193,1329.6967,265.0333,1339.27,262.72" style="stroke: #A80036; stroke-width: 1.0;"/><!--MD5=[b358c7861cdf09ac9fce959c833f91c3]
link SuperpowerManager to Game--><path d="M880.31,191.17 C899.11,199.61 922.86,209.19 945,215 C1086,251.99 1260.29,263.41 1334.19,266.73 " fill="none" id="SuperpowerManager-&gt;Game" style="stroke: #A80036; stroke-width: 1.0;"/><polygon fill="#A80036" points="1339.33,266.95,1330.5101,262.5672,1334.3346,266.7353,1330.1665,270.5598,1339.33,266.95" style="stroke: #A80036; stroke-width: 1.0;"/><!--MD5=[6c5e38bbd8f42be902ebce536ee42836]
@startuml ComponentOverview
skinparam componentStyle rectangle
package "Core Domain" {
  [Game]
  [World]
  [Tank]
  [GameSession]
}
package "Presentation (pygame)" {
  [PygameTanx]
  [DisplayManager]
  [InputHandler]
  [Renderer]
  [EffectsSystem]
  [Soundscape]
  [SuperpowerManager]
  [ComputerOpponent]
  [MenuController]
}
[Game] - -> [World]
[Game] - -> [Tank]
[GameSession] - -> [Game]
[GameSession] - -> [Tank]
[PygameTanx] - -> [GameSession]
[PygameTanx] - -> [DisplayManager]
[PygameTanx] - -> [InputHandler]
[PygameTanx] - -> [Renderer]
[PygameTanx] - -> [EffectsSystem]
[PygameTanx] - -> [Soundscape]
[PygameTanx] - -> [SuperpowerManager]
[PygameTanx] - -> [ComputerOpponent]
[PygameTanx] - -> [MenuController]
[ComputerOpponent] - -> [Game]
[SuperpowerManager] - -> [Game]
@enduml

PlantUML version 1.2020.02(Sun Mar 01 11:22:07 CET 2020)
(GPL source distribution)
Java Runtime: OpenJDK Runtime Environment
JVM: OpenJDK 64-Bit Server VM
Java Version: 21.0.8+9-Ubuntu-0ubuntu124.04.1
Operating System: Linux
Default Encoding: UTF-8
Language: en
Country: null
--></g></svg>