<?xml version="1.0" encoding="UTF-8" standalone="no"?><svg xmlns="http://www.w3.org/2000/svg" xmlns:xlink="http://www.w3.org/1999/xlink" contentScriptType="application/ecmascript" contentStyleType="text/css" height="690px" preserveAspectRatio="none" style="width:1206px;height:690px;" version="1.1" viewBox="0 0 1206 690" width="1206px" zoomAndPan="magnify"><defs><filter height="300%" id="fb7x0r534stxp" width="300%" x="-1" y="-1"><feGaussianBlur result="blurOut" stdDeviation="2.0"/><feColorMatrix in="blurOut" result="blurOut2" type="matrix" values="0 0 0 0 0 0 0 0 0 0 0 0 0 0 0 0 0 0 .4 0"/><feOffset dx="4.0" dy="4.0" in="blurOut2" result="blurOut3"/><feBlend in="SourceGraphic" in2="blurOut3" mode="normal"/></filter></defs><g><rect fill="#FFFFFF" filter="url(#fb7x0r534stxp)" height="104.5313" style="stroke: #000000; stroke-width: 2.0;" width="762.5" x="238.5" y="278.0938"/><line style="stroke: #A80036; stroke-width: 1.0; stroke-dasharray: 5.0,5.0;" x1="31" x2="31" y1="86.2969" y2="603.5547"/><line style="stroke: #A80036; stroke-width: 1.0; stroke-dasharray: 5.0,5.0;" x1="147.5" x2="147.5" y1="86.2969" y2="603.5547"/><line style="stroke: #A80036; stroke-width: 1.0; stroke-dasharray: 5.0,5.0;" x1="301.5" x2="301.5" y1="86.2969" y2="603.5547"/><line style="stroke: #A80036; stroke-width: 1.0; stroke-dasharray: 5.0,5.0;" x1="556.5" x2="556.5" y1="86.2969" y2="603.5547"/><line style="stroke: #A80036; stroke-width: 1.0; stroke-dasharray: 5.0,5.0;" x1="835" x2="835" y1="86.2969" y2="603.5547"/><line style="stroke: #A80036; stroke-width: 1.0; stroke-dasharray: 5.0,5.0;" x1="933" x2="933" y1="86.2969" y2="603.5547"/><line style="stroke: #A80036; stroke-width: 1.0; stroke-dasharray: 5.0,5.0;" x1="1053" x2="1053" y1="86.2969" y2="603.5547"/><line style="stroke: #A80036; stroke-width: 1.0; stroke-dasharray: 5.0,5.0;" x1="1157" x2="1157" y1="86.2969" y2="603.5547"/><text fill="#000000" font-family="sans-serif" font-size="14" lengthAdjust="spacingAndGlyphs" textLength="41" x="8" y="82.9951">Player</text><ellipse cx="31.5" cy="13" fill="#FEFECE" filter="url(#fb7x0r534stxp)" rx="8" ry="8" style="stroke: #A80036; stroke-width: 2.0;"/><path d="M31.5,21 L31.5,48 M18.5,29 L44.5,29 M31.5,48 L18.5,63 M31.5,48 L44.5,63 " fill="none" filter="url(#fb7x0r534stxp)" style="stroke: #A80036; stroke-width: 2.0;"/><text fill="#000000" font-family="sans-serif" font-size="14" lengthAdjust="spacingAndGlyphs" textLength="41" x="8" y="615.5498">Player</text><ellipse cx="31.5" cy="628.8516" fill="#FEFECE" filter="url(#fb7x0r534stxp)" rx="8" ry="8" style="stroke: #A80036; stroke-width: 2.0;"/><path d="M31.5,636.8516 L31.5,663.8516 M18.5,644.8516 L44.5,644.8516 M31.5,663.8516 L18.5,678.8516 M31.5,663.8516 L44.5,678.8516 " fill="none" filter="url(#fb7x0r534stxp)" style="stroke: #A80036; stroke-width: 2.0;"/><rect fill="#FEFECE" filter="url(#fb7x0r534stxp)" height="30.2969" style="stroke: #A80036; stroke-width: 1.5;" width="102" x="94.5" y="51"/><text fill="#000000" font-family="sans-serif" font-size="14" lengthAdjust="spacingAndGlyphs" textLength="88" x="101.5" y="70.9951">InputHandler</text><rect fill="#FEFECE" filter="url(#fb7x0r534stxp)" height="30.2969" style="stroke: #A80036; stroke-width: 1.5;" width="102" x="94.5" y="602.5547"/><text fill="#000000" font-family="sans-serif" font-size="14" lengthAdjust="spacingAndGlyphs" textLength="88" x="101.5" y="622.5498">InputHandler</text><rect fill="#FEFECE" filter="url(#fb7x0r534stxp)" height="30.2969" style="stroke: #A80036; stroke-width: 1.5;" width="102" x="248.5" y="51"/><text fill="#000000" font-family="sans-serif" font-size="14" lengthAdjust="spacingAndGlyphs" textLength="88" x="255.5" y="70.9951">PygameTanx</text><rect fill="#FEFECE" filter="url(#fb7x0r534stxp)" height="30.2969" style="stroke: #A80036; stroke-width: 1.5;" width="102" x="248.5" y="602.5547"/><text fill="#000000" font-family="sans-serif" font-size="14" lengthAdjust="spacingAndGlyphs" textLength="88" x="255.5" y="622.5498">PygameTanx</text><rect fill="#FEFECE" filter="url(#fb7x0r534stxp)" height="30.2969" style="stroke: #A80036; stroke-width: 1.5;" width="110" x="499.5" y="51"/><text fill="#000000" font-family="sans-serif" font-size="14" lengthAdjust="spacingAndGlyphs" textLength="96" x="506.5" y="70.9951">GameSession</text><rect fill="#FEFECE" filter="url(#fb7x0r534stxp)" height="30.2969" style="stroke: #A80036; stroke-width: 1.5;" width="110" x="499.5" y="602.5547"/><text fill="#000000" font-family="sans-serif" font-size="14" lengthAdjust="spacingAndGlyphs" textLength="96" x="506.5" y="622.5498">GameSession</text><rect fill="#FEFECE" filter="url(#fb7x0r534stxp)" height="30.2969" style="stroke: #A80036; stroke-width: 1.5;" width="55" x="806" y="51"/><text fill="#000000" font-family="sans-serif" font-size="14" lengthAdjust="spacingAndGlyphs" textLength="41" x="813" y="70.9951">Game</text><rect fill="#FEFECE" filter="url(#fb7x0r534stxp)" height="30.2969" style="stroke: #A80036; stroke-width: 1.5;" width="55" x="806" y="602.5547"/><text fill="#000000" font-family="sans-serif" font-size="14" lengthAdjust="spacingAndGlyphs" textLength="41" x="813" y="622.5498">Game</text><rect fill="#FEFECE" filter="url(#fb7x0r534stxp)" height="30.2969" style="stroke: #A80036; stroke-width: 1.5;" width="112" x="875" y="51"/><text fill="#000000" font-family="sans-serif" font-size="14" lengthAdjust="spacingAndGlyphs" textLength="98" x="882" y="70.9951">EffectsSystem</text><rect fill="#FEFECE" filter="url(#fb7x0r534stxp)" height="30.2969" style="stroke: #A80036; stroke-width: 1.5;" width="112" x="875" y="602.5547"/><text fill="#000000" font-family="sans-serif" font-size="14" lengthAdjust="spacingAndGlyphs" textLength="98" x="882" y="622.5498">EffectsSystem</text><rect fill="#FEFECE" filter="url(#fb7x0r534stxp)" height="30.2969" style="stroke: #A80036; stroke-width: 1.5;" width="101" x="1001" y="51"/><text fill="#000000" font-family="sans-serif" font-size="14" lengthAdjust="spacingAndGlyphs" textLength="87" x="1008" y="70.9951">Soundscape</text><rect fill="#FEFECE" filter="url(#fb7x0r534stxp)" height="30.2969" style="stroke: #A80036; stroke-width: 1.5;" width="101" x="1001" y="602.5547"/><text fill="#000000" font-family="sans-serif" font-size="14" lengthAdjust="spacingAndGlyphs" textLength="87" x="1008" y="622.5498">Soundscape</text><rect fill="#FEFECE" filter="url(#fb7x0r534stxp)" height="30.2969" style="stroke: #A80036; stroke-width: 1.5;" width="79" x="1116" y="51"/><text fill="#000000" font-family="sans-serif" font-size="14" lengthAdjust="spacingAndGlyphs" textLength="65" x="1123" y="70.9951">Renderer</text><rect fill="#FEFECE" filter="url(#fb7x0r534stxp)" height="30.2969" style="stroke: #A80036; stroke-width: 1.5;" width="79" x="1116" y="602.5547"/><text fill="#000000" font-family="sans-serif" font-size="14" lengthAdjust="spacingAndGlyphs" textLength="65" x="1123" y="622.5498">Renderer</text><polygon fill="#A80036" points="135.5,113.4297,145.5,117.4297,135.5,121.4297,139.5,117.4297" style="stroke: #A80036; stroke-width: 1.0;"/><line style="stroke: #A80036; stroke-width: 1.0;" x1="31.5" x2="141.5" y1="117.4297" y2="117.4297"/><text fill="#000000" font-family="sans-serif" font-size="13" lengthAdjust="spacingAndGlyphs" textLength="92" x="38.5" y="112.3638">KeyDown (fire)</text><polygon fill="#A80036" points="289.5,142.5625,299.5,146.5625,289.5,150.5625,293.5,146.5625" style="stroke: #A80036; stroke-width: 1.0;"/><line style="stroke: #A80036; stroke-width: 1.0;" x1="147.5" x2="295.5" y1="146.5625" y2="146.5625"/><text fill="#000000" font-family="sans-serif" font-size="13" lengthAdjust="spacingAndGlyphs" textLength="130" x="154.5" y="141.4966">_fire_projectile(tank)</text><polygon fill="#A80036" points="544.5,171.6953,554.5,175.6953,544.5,179.6953,548.5,175.6953" style="stroke: #A80036; stroke-width: 1.0;"/><line style="stroke: #A80036; stroke-width: 1.0;" x1="301.5" x2="550.5" y1="175.6953" y2="175.6953"/><text fill="#000000" font-family="sans-serif" font-size="13" lengthAdjust="spacingAndGlyphs" textLength="138" x="308.5" y="170.6294">begin_projectile(tank)</text><polygon fill="#A80036" points="823.5,200.8281,833.5,204.8281,823.5,208.8281,827.5,204.8281" style="stroke: #A80036; stroke-width: 1.0;"/><line style="stroke: #A80036; stroke-width: 1.0;" x1="556.5" x2="829.5" y1="204.8281" y2="204.8281"/><text fill="#000000" font-family="sans-serif" font-size="13" lengthAdjust="spacingAndGlyphs" textLength="231" x="563.5" y="199.7622">step_projectile(apply_effects=False)</text><polygon fill="#A80036" points="567.5,229.9609,557.5,233.9609,567.5,237.9609,563.5,233.9609" style="stroke: #A80036; stroke-width: 1.0;"/><line style="stroke: #A80036; stroke-width: 1.0; stroke-dasharray: 2.0,2.0;" x1="561.5" x2="834.5" y1="233.9609" y2="233.9609"/><text fill="#000000" font-family="sans-serif" font-size="13" lengthAdjust="spacingAndGlyphs" textLength="215" x="573.5" y="228.895">ShotResult (path, impact, hit info)</text><polygon fill="#A80036" points="312.5,259.0938,302.5,263.0938,312.5,267.0938,308.5,263.0938" style="stroke: #A80036; stroke-width: 1.0;"/><line style="stroke: #A80036; stroke-width: 1.0;" x1="306.5" x2="555.5" y1="263.0938" y2="263.0938"/><text fill="#000000" font-family="sans-serif" font-size="13" lengthAdjust="spacingAndGlyphs" textLength="195" x="318.5" y="258.0278">store result &amp; status message</text><path d="M238.5,278.0938 L315.5,278.0938 L315.5,285.0938 L305.5,295.0938 L238.5,295.0938 L238.5,278.0938 " fill="#EEEEEE" style="stroke: #000000; stroke-width: 1.0;"/><rect fill="none" height="104.5313" style="stroke: #000000; stroke-width: 2.0;" width="762.5" x="238.5" y="278.0938"/><text fill="#000000" font-family="sans-serif" font-size="13" font-weight="bold" lengthAdjust="spacingAndGlyphs" textLength="32" x="253.5" y="291.1606">loop</text><text fill="#000000" font-family="sans-serif" font-size="11" font-weight="bold" lengthAdjust="spacingAndGlyphs" textLength="96" x="330.5" y="290.3042">[frame update]</text><polygon fill="#A80036" points="544.5,312.3594,554.5,316.3594,544.5,320.3594,548.5,316.3594" style="stroke: #A80036; stroke-width: 1.0;"/><line style="stroke: #A80036; stroke-width: 1.0;" x1="301.5" x2="550.5" y1="316.3594" y2="316.3594"/><text fill="#000000" font-family="sans-serif" font-size="13" lengthAdjust="spacingAndGlyphs" textLength="133" x="308.5" y="311.2935">update_projectile(dt)</text><polygon fill="#A80036" points="312.5,341.4922,302.5,345.4922,312.5,349.4922,308.5,345.4922" style="stroke: #A80036; stroke-width: 1.0;"/><line style="stroke: #A80036; stroke-width: 1.0; stroke-dasharray: 2.0,2.0;" x1="306.5" x2="555.5" y1="345.4922" y2="345.4922"/><text fill="#000000" font-family="sans-serif" font-size="13" lengthAdjust="spacingAndGlyphs" textLength="227" x="318.5" y="340.4263">ProjectileStep (positions | finished?)</text><polygon fill="#A80036" points="921,370.625,931,374.625,921,378.625,925,374.625" style="stroke: #A80036; stroke-width: 1.0;"/><line style="stroke: #A80036; stroke-width: 1.0;" x1="301.5" x2="927" y1="374.625" y2="374.625"/><text fill="#000000" font-family="sans-serif" font-size="13" lengthAdjust="spacingAndGlyphs" textLength="131" x="308.5" y="369.5591">spawn_trail(position)</text><polygon fill="#A80036" points="544.5,406.7578,554.5,410.7578,544.5,414.7578,548.5,410.7578" style="stroke: #A80036; stroke-width: 1.0;"/><line style="stroke: #A80036; stroke-width: 1.0;" x1="301.5" x2="550.5" y1="410.7578" y2="410.7578"/><text fill="#000000" font-family="sans-serif" font-size="13" lengthAdjust="spacingAndGlyphs" textLength="157" x="308.5" y="405.6919">resolve_projectile(result)</text><polygon fill="#A80036" points="823.5,435.8906,833.5,439.8906,823.5,443.8906,827.5,439.8906" style="stroke: #A80036; stroke-width: 1.0;"/><line style="stroke: #A80036; stroke-width: 1.0;" x1="556.5" x2="829.5" y1="439.8906" y2="439.8906"/><text fill="#000000" font-family="sans-serif" font-size="13" lengthAdjust="spacingAndGlyphs" textLength="165" x="563.5" y="434.8247">apply_shot_effects(result)</text><polygon fill="#A80036" points="567.5,465.0234,557.5,469.0234,567.5,473.0234,563.5,469.0234" style="stroke: #A80036; stroke-width: 1.0;"/><line style="stroke: #A80036; stroke-width: 1.0;" x1="561.5" x2="834.5" y1="469.0234" y2="469.0234"/><text fill="#000000" font-family="sans-serif" font-size="13" lengthAdjust="spacingAndGlyphs" textLength="255" x="573.5" y="463.9575">updated ShotResult (damage, fatalities)</text><polygon fill="#A80036" points="921,494.1563,931,498.1563,921,502.1563,925,498.1563" style="stroke: #A80036; stroke-width: 1.0;"/><line style="stroke: #A80036; stroke-width: 1.0;" x1="301.5" x2="927" y1="498.1563" y2="498.1563"/><text fill="#000000" font-family="sans-serif" font-size="13" lengthAdjust="spacingAndGlyphs" textLength="216" x="308.5" y="493.0903">spawn_impact_particles/explosion</text><polygon fill="#A80036" points="1041.5,523.2891,1051.5,527.2891,1041.5,531.2891,1045.5,527.2891" style="stroke: #A80036; stroke-width: 1.0;"/><line style="stroke: #A80036; stroke-width: 1.0;" x1="301.5" x2="1047.5" y1="527.2891" y2="527.2891"/><text fill="#000000" font-family="sans-serif" font-size="13" lengthAdjust="spacingAndGlyphs" textLength="300" x="308.5" y="522.2231">play(hit_tank|impact_structure|impact_ground)</text><polygon fill="#A80036" points="312.5,552.4219,302.5,556.4219,312.5,560.4219,308.5,556.4219" style="stroke: #A80036; stroke-width: 1.0;"/><line style="stroke: #A80036; stroke-width: 1.0;" x1="306.5" x2="555.5" y1="556.4219" y2="556.4219"/><text fill="#000000" font-family="sans-serif" font-size="13" lengthAdjust="spacingAndGlyphs" textLength="231" x="318.5" y="551.356">winner/wait states, super power gain</text><polygon fill="#A80036" points="1145.5,581.5547,1155.5,585.5547,1145.5,589.5547,1149.5,585.5547" style="stroke: #A80036; stroke-width: 1.0;"/><line style="stroke: #A80036; stroke-width: 1.0;" x1="301.5" x2="1151.5" y1="585.5547" y2="585.5547"/><text fill="#000000" font-family="sans-serif" font-size="13" lengthAdjust="spacingAndGlyphs" textLength="160" x="308.5" y="580.4888">draw updates next frame</text><!--MD5=[fa02e6750a73ae1b8cbbe73172d2148b]
@startuml ProjectileSequence
actor Player
participant InputHandler
participant PygameTanx
participant GameSession
participant Game
participant EffectsSystem
participant Soundscape

Player -> InputHandler : KeyDown (fire)
InputHandler -> PygameTanx : _fire_projectile(tank)
PygameTanx -> GameSession : begin_projectile(tank)
GameSession -> Game : step_projectile(apply_effects=False)
Game - -> GameSession : ShotResult (path, impact, hit info)
GameSession -> PygameTanx : store result & status message
loop frame update
  PygameTanx -> GameSession : update_projectile(dt)
  GameSession - -> PygameTanx : ProjectileStep (positions | finished?)
  PygameTanx -> EffectsSystem : spawn_trail(position)
end
PygameTanx -> GameSession : resolve_projectile(result)
GameSession -> Game : apply_shot_effects(result)
Game -> GameSession : updated ShotResult (damage, fatalities)
PygameTanx -> EffectsSystem : spawn_impact_particles/explosion
PygameTanx -> Soundscape : play(hit_tank|impact_structure|impact_ground)
GameSession -> PygameTanx : winner/wait states, super power gain
PygameTanx -> Renderer : draw updates next frame
@enduml

PlantUML version 1.2020.02(Sun Mar 01 11:22:07 CET 2020)
(GPL source distribution)
Java Runtime: OpenJDK Runtime Environment
JVM: OpenJDK 64-Bit Server VM
Java Version: 21.0.8+9-Ubuntu-0ubuntu124.04.1
Operating System: Linux
Default Encoding: UTF-8
Language: en
Country: null
--></g></svg>