<?xml version="1.0" encoding="UTF-8" standalone="no"?><svg xmlns="http://www.w3.org/2000/svg" xmlns:xlink="http://www.w3.org/1999/xlink" contentScriptType="application/ecmascript" contentStyleType="text/css" height="658px" preserveAspectRatio="none" style="width:857px;height:658px;" version="1.1" viewBox="0 0 857 658" width="857px" zoomAndPan="magnify"><defs><filter height="300%" id="f1gk6rdbj2rvtx" width="300%" x="-1" y="-1"><feGaussianBlur result="blurOut" stdDeviation="2.0"/><feColorMatrix in="blurOut" result="blurOut2" type="matrix" values="0 0 0 0 0 0 0 0 0 0 0 0 0 0 0 0 0 0 .4 0"/><feOffset dx="4.0" dy="4.0" in="blurOut2" result="blurOut3"/><feBlend in="SourceGraphic" in2="blurOut3" mode="normal"/></filter></defs><g><ellipse cx="531.12" cy="18" fill="#000000" filter="url(#f1gk6rdbj2rvtx)" rx="10" ry="10" style="stroke: none; stroke-width: 1.0;"/><rect fill="#FEFECE" filter="url(#f1gk6rdbj2rvtx)" height="50" rx="12.5" ry="12.5" style="stroke: #A80036; stroke-width: 1.5;" width="91" x="485.62" y="89"/><line style="stroke: #A80036; stroke-width: 1.5;" x1="485.62" x2="576.62" y1="115.2969" y2="115.2969"/><text fill="#000000" font-family="sans-serif" font-size="14" lengthAdjust="spacingAndGlyphs" textLength="71" x="495.62" y="106.9951">MainMenu</text><rect fill="#FEFECE" filter="url(#f1gk6rdbj2rvtx)" height="50" rx="12.5" ry="12.5" style="stroke: #A80036; stroke-width: 1.5;" width="68" x="181.12" y="216"/><line style="stroke: #A80036; stroke-width: 1.5;" x1="181.12" x2="249.12" y1="242.2969" y2="242.2969"/><text fill="#000000" font-family="sans-serif" font-size="14" lengthAdjust="spacingAndGlyphs" textLength="48" x="191.12" y="233.9951">Playing</text><rect fill="#FEFECE" filter="url(#f1gk6rdbj2rvtx)" height="50" rx="12.5" ry="12.5" style="stroke: #A80036; stroke-width: 1.5;" width="102" x="32.12" y="343"/><line style="stroke: #A80036; stroke-width: 1.5;" x1="32.12" x2="134.12" y1="369.2969" y2="369.2969"/><text fill="#000000" font-family="sans-serif" font-size="14" lengthAdjust="spacingAndGlyphs" textLength="82" x="42.12" y="360.9951">PauseMenu</text><rect fill="#FEFECE" filter="url(#f1gk6rdbj2rvtx)" height="50" rx="12.5" ry="12.5" style="stroke: #A80036; stroke-width: 1.5;" width="77" x="582.62" y="470"/><line style="stroke: #A80036; stroke-width: 1.5;" x1="582.62" x2="659.62" y1="496.2969" y2="496.2969"/><text fill="#000000" font-family="sans-serif" font-size="14" lengthAdjust="spacingAndGlyphs" textLength="57" x="592.62" y="487.9951">Settings</text><rect fill="#FEFECE" filter="url(#f1gk6rdbj2rvtx)" height="50" rx="12.5" ry="12.5" style="stroke: #A80036; stroke-width: 1.5;" width="114" x="564.12" y="597"/><line style="stroke: #A80036; stroke-width: 1.5;" x1="564.12" x2="678.12" y1="623.2969" y2="623.2969"/><text fill="#000000" font-family="sans-serif" font-size="14" lengthAdjust="spacingAndGlyphs" textLength="94" x="574.12" y="614.9951">KeybindMenu</text><rect fill="#FEFECE" filter="url(#f1gk6rdbj2rvtx)" height="50" rx="12.5" ry="12.5" style="stroke: #A80036; stroke-width: 1.5;" width="92" x="440.12" y="343"/><line style="stroke: #A80036; stroke-width: 1.5;" x1="440.12" x2="532.12" y1="369.2969" y2="369.2969"/><text fill="#000000" font-family="sans-serif" font-size="14" lengthAdjust="spacingAndGlyphs" textLength="72" x="450.12" y="360.9951">PostGame</text><!--MD5=[15cc0734021f24ef37ee519106823f9b]
link *start to MainMenu--><path d="M531.12,28.01 C531.12,40.7 531.12,64.41 531.12,83.57 " fill="none" id="*start-&gt;MainMenu" style="stroke: #A80036; stroke-width: 1.0;"/><polygon fill="#A80036" points="531.12,88.84,535.12,79.84,531.12,83.84,527.12,79.84,531.12,88.84" style="stroke: #A80036; stroke-width: 1.0;"/><!--MD5=[56f7ee59ece881d8cfc3f167f8d993fc]
link MainMenu to Playing--><path d="M485.2,119.93 C437.88,126.35 362.93,140.34 304.12,169 C281.68,179.94 259.71,197.36 243.22,212.21 " fill="none" id="MainMenu-&gt;Playing" style="stroke: #A80036; stroke-width: 1.0;"/><polygon fill="#A80036" points="239.15,215.93,248.4972,212.8267,242.8465,212.5631,243.1101,206.9124,239.15,215.93" style="stroke: #A80036; stroke-width: 1.0;"/><text fill="#000000" font-family="sans-serif" font-size="13" lengthAdjust="spacingAndGlyphs" textLength="199" x="305.12" y="182.0669">Start Game / Play vs Computer</text><!--MD5=[2f116ef729a1d4a8ce3eb82183f355da]
link MainMenu to Settings--><path d="M576.93,128.54 C616.9,143.05 672.4,170.4 698.12,216 C722.57,259.36 721.08,395.84 698.12,440 C690.74,454.19 677.74,465.42 664.49,473.89 " fill="none" id="MainMenu-&gt;Settings" style="stroke: #A80036; stroke-width: 1.0;"/><polygon fill="#A80036" points="660,476.65,669.7593,475.3252,664.2544,474.0231,665.5564,468.5182,660,476.65" style="stroke: #A80036; stroke-width: 1.0;"/><text fill="#000000" font-family="sans-serif" font-size="13" lengthAdjust="spacingAndGlyphs" textLength="53" x="716.12" y="309.0669">Settings</text><!--MD5=[d3e50ed7869b82427d7a1e1b236ce66d]
link Settings to MainMenu--><path d="M659.8,482.12 C682.08,473.55 709.13,459.94 727.12,440 C775.47,386.4 790.65,350.44 776.12,296 C758.53,230.14 746.51,207.3 690.12,169 C657.49,146.85 614.96,133.03 582.09,124.92 " fill="none" id="Settings-&gt;MainMenu" style="stroke: #A80036; stroke-width: 1.0;"/><polygon fill="#A80036" points="576.9,123.67,584.7113,129.6686,581.7606,124.8423,586.587,121.8916,576.9,123.67" style="stroke: #A80036; stroke-width: 1.0;"/><text fill="#000000" font-family="sans-serif" font-size="13" lengthAdjust="spacingAndGlyphs" textLength="65" x="780.12" y="309.0669">Back / Esc</text><!--MD5=[fbed7fa2299c3d23df306cbe880885f6]
link Settings to KeybindMenu--><path d="M582.33,505.68 C546.44,516.7 501.14,537.15 519.12,567 C528.37,582.38 543.64,593.6 559.58,601.7 " fill="none" id="Settings-&gt;KeybindMenu" style="stroke: #A80036; stroke-width: 1.0;"/><polygon fill="#A80036" points="564.09,603.91,557.7515,596.3719,559.5952,601.7199,554.2472,603.5636,564.09,603.91" style="stroke: #A80036; stroke-width: 1.0;"/><text fill="#000000" font-family="sans-serif" font-size="13" lengthAdjust="spacingAndGlyphs" textLength="156" x="520.12" y="563.0669">"Configure Key Bindings"</text><!--MD5=[5cfee51f4984f2243852837b32707888]
link KeybindMenu to Settings--><path d="M660.99,596.83 C676.51,584.12 688.93,567.54 681.12,550 C676.71,540.1 669.48,531.25 661.55,523.72 " fill="none" id="KeybindMenu-&gt;Settings" style="stroke: #A80036; stroke-width: 1.0;"/><polygon fill="#A80036" points="657.61,520.14,661.5684,529.1584,661.3058,523.5076,666.9566,523.2451,657.61,520.14" style="stroke: #A80036; stroke-width: 1.0;"/><text fill="#000000" font-family="sans-serif" font-size="13" lengthAdjust="spacingAndGlyphs" textLength="65" x="684.12" y="563.0669">Back / Esc</text><!--MD5=[96aa595da489f22a95b2d30c7e07df01]
link Playing to PauseMenu--><path d="M183.27,266.06 C171.87,275.09 159.12,285.67 148.12,296 C133.87,309.37 119.08,325.34 107.22,338.74 " fill="none" id="Playing-&gt;PauseMenu" style="stroke: #A80036; stroke-width: 1.0;"/><polygon fill="#A80036" points="103.63,342.81,112.5834,338.7068,106.9376,339.0604,106.5841,333.4146,103.63,342.81" style="stroke: #A80036; stroke-width: 1.0;"/><text fill="#000000" font-family="sans-serif" font-size="13" lengthAdjust="spacingAndGlyphs" textLength="22" x="149.12" y="309.0669">Esc</text><!--MD5=[159ade30fc8c4fb08d3142a74224f109]
link PauseMenu to Playing--><path d="M44.67,342.97 C27.74,329.35 14.12,311.9 26.12,296 C44.1,272.16 125.81,255.68 175.72,247.64 " fill="none" id="PauseMenu-&gt;Playing" style="stroke: #A80036; stroke-width: 1.0;"/><polygon fill="#A80036" points="180.74,246.84,171.2225,244.3068,175.8024,247.6272,172.482,252.207,180.74,246.84" style="stroke: #A80036; stroke-width: 1.0;"/><text fill="#000000" font-family="sans-serif" font-size="13" lengthAdjust="spacingAndGlyphs" textLength="95" x="27.12" y="309.0669">Resume Game</text><!--MD5=[a2ee12c59098eeebea8054d6b33ac00b]
link PauseMenu to MainMenu--><path d="M39.21,342.86 C28.75,334.83 18.94,324.85 13.12,313 C-8.19,269.65 22.87,244.15 62.12,216 C129.15,167.91 373.29,133.77 480.29,120.78 " fill="none" id="PauseMenu-&gt;MainMenu" style="stroke: #A80036; stroke-width: 1.0;"/><polygon fill="#A80036" points="485.28,120.18,475.8656,117.2872,480.316,120.7791,476.8241,125.2296,485.28,120.18" style="stroke: #A80036; stroke-width: 1.0;"/><text fill="#000000" font-family="sans-serif" font-size="13" lengthAdjust="spacingAndGlyphs" textLength="100" x="63.12" y="245.5669">Abandon Game</text><!--MD5=[3529a30a1560ce4f2aa9b55fd04dd9ae]
link Playing to PostGame--><path d="M206.57,266.3 C202.93,281.38 201.62,300.23 212.12,313 C239.78,346.65 363.6,359.66 434.96,364.44 " fill="none" id="Playing-&gt;PostGame" style="stroke: #A80036; stroke-width: 1.0;"/><polygon fill="#A80036" points="440.01,364.76,431.2917,360.1785,435.0208,364.4321,430.7671,368.1612,440.01,364.76" style="stroke: #A80036; stroke-width: 1.0;"/><text fill="#000000" font-family="sans-serif" font-size="13" lengthAdjust="spacingAndGlyphs" textLength="209" x="213.12" y="309.0669">Winner declared + delay elapsed</text><!--MD5=[3956a92f5acb44020392fba0a21987c3]
link PostGame to Playing--><path d="M471.76,342.84 C461.27,327.24 445.68,307.73 427.12,296 C373.32,262.01 299.13,249.38 254.29,244.71 " fill="none" id="PostGame-&gt;Playing" style="stroke: #A80036; stroke-width: 1.0;"/><polygon fill="#A80036" points="249.24,244.21,257.7959,249.0881,254.215,244.7089,258.5942,241.128,249.24,244.21" style="stroke: #A80036; stroke-width: 1.0;"/><text fill="#000000" font-family="sans-serif" font-size="13" lengthAdjust="spacingAndGlyphs" textLength="106" x="447.12" y="309.0669">Start New Game</text><!--MD5=[0705d472e763a8e2e1f2fd8840007b51]
link PostGame to MainMenu--><path d="M532.51,344.38 C544.31,336.23 555.51,325.8 562.12,313 C565.58,306.29 562.76,303.53 562.12,296 C560.86,281.17 544.95,191.71 536.42,144.35 " fill="none" id="PostGame-&gt;MainMenu" style="stroke: #A80036; stroke-width: 1.0;"/><polygon fill="#A80036" points="535.52,139.35,533.1798,148.9168,536.4069,144.2707,541.0529,147.4978,535.52,139.35" style="stroke: #A80036; stroke-width: 1.0;"/><text fill="#000000" font-family="sans-serif" font-size="13" lengthAdjust="spacingAndGlyphs" textLength="134" x="558.12" y="245.5669">Return to Start Menu</text><!--MD5=[35f50209cd0bd2a52ad40526ec2911f1]
link PostGame to Settings--><path d="M503.57,393.04 C514.63,407.47 529.72,425.73 545.12,440 C555.37,449.51 567.36,458.75 578.74,466.82 " fill="none" id="PostGame-&gt;Settings" style="stroke: #A80036; stroke-width: 1.0;"/><polygon fill="#A80036" points="582.91,469.74,577.8327,461.3007,578.8145,466.8717,573.2435,467.8535,582.91,469.74" style="stroke: #A80036; stroke-width: 1.0;"/><text fill="#000000" font-family="sans-serif" font-size="13" lengthAdjust="spacingAndGlyphs" textLength="147" x="546.12" y="436.0669">Settings (from overlay)</text><!--MD5=[fd180ab7653c4ec5ae38a0194490cb1d]
link PauseMenu to Settings--><path d="M134.21,380.87 C239.48,405.33 478.87,460.95 577.45,483.85 " fill="none" id="PauseMenu-&gt;Settings" style="stroke: #A80036; stroke-width: 1.0;"/><polygon fill="#A80036" points="582.61,485.05,574.745,479.122,577.739,483.9215,572.9394,486.9155,582.61,485.05" style="stroke: #A80036; stroke-width: 1.0;"/><text fill="#000000" font-family="sans-serif" font-size="13" lengthAdjust="spacingAndGlyphs" textLength="97" x="385.12" y="436.0669">Settings option</text><!--MD5=[30eee047c260ee31969f6788a85e0e0f]
@startuml GameStates
[*] - -> MainMenu
state MainMenu
state Playing
state PauseMenu
state Settings
state KeybindMenu
state PostGame

MainMenu - -> Playing : Start Game / Play vs Computer
MainMenu - -> Settings : Settings
Settings - -> MainMenu : Back / Esc
Settings - -> KeybindMenu : "Configure Key Bindings"
KeybindMenu - -> Settings : Back / Esc
Playing - -> PauseMenu : Esc
PauseMenu - -> Playing : Resume Game
PauseMenu - -> MainMenu : Abandon Game
Playing - -> PostGame : Winner declared + delay elapsed
PostGame - -> Playing : Start New Game
PostGame - -> MainMenu : Return to Start Menu
PostGame - -> Settings : Settings (from overlay)
PauseMenu - -> Settings : Settings option
@enduml

PlantUML version 1.2020.02(Sun Mar 01 11:22:07 CET 2020)
(GPL source distribution)
Java Runtime: OpenJDK Runtime Environment
JVM: OpenJDK 64-Bit Server VM
Java Version: 21.0.8+9-Ubuntu-0ubuntu124.04.1
Operating System: Linux
Default Encoding: UTF-8
Language: en
Country: null
--></g></svg>