<?xml version="1.0" encoding="UTF-8" standalone="no"?><svg xmlns="http://www.w3.org/2000/svg" xmlns:xlink="http://www.w3.org/1999/xlink" contentScriptType="application/ecmascript" contentStyleType="text/css" height="884px" preserveAspectRatio="none" style="width:938px;height:884px;" version="1.1" viewBox="0 0 938 884" width="938px" zoomAndPan="magnify"><defs><filter height="300%" id="fz0asdx50ug34" width="300%" x="-1" y="-1"><feGaussianBlur result="blurOut" stdDeviation="2.0"/><feColorMatrix in="blurOut" result="blurOut2" type="matrix" values="0 0 0 0 0 0 0 0 0 0 0 0 0 0 0 0 0 0 .4 0"/><feOffset dx="4.0" dy="4.0" in="blurOut2" result="blurOut3"/><feBlend in="SourceGraphic" in2="blurOut3" mode="normal"/></filter></defs><g><ellipse cx="466" cy="20" fill="#000000" filter="url(#fz0asdx50ug34)" rx="10" ry="10" style="stroke: none; stroke-width: 1.0;"/><rect fill="#FEFECE" filter="url(#fz0asdx50ug34)" height="33.9688" rx="12.5" ry="12.5" style="stroke: #A80036; stroke-width: 1.5;" width="215" x="358.5" y="50"/><text fill="#000000" font-family="sans-serif" font-size="12" lengthAdjust="spacingAndGlyphs" textLength="195" x="368.5" y="71.1387">ComputerOpponent.update(dt)</text><rect fill="#FEFECE" filter="url(#fz0asdx50ug34)" height="33.9688" rx="12.5" ry="12.5" style="stroke: #A80036; stroke-width: 1.5;" width="95" x="418.5" y="171.5781"/><text fill="#000000" font-family="sans-serif" font-size="12" lengthAdjust="spacingAndGlyphs" textLength="75" x="428.5" y="192.7168">reset_turn()</text><ellipse cx="466" cy="245.0625" fill="#FFFFFF" filter="url(#fz0asdx50ug34)" rx="11" ry="11" style="stroke: #000000; stroke-width: 1.0;"/><ellipse cx="466" cy="245.0625" fill="#000000" rx="6" ry="6" style="stroke: #7F7F7F; stroke-width: 1.0;"/><polygon fill="#FEFECE" filter="url(#fz0asdx50ug34)" points="440.5,103.9688,491.5,103.9688,503.5,115.9688,491.5,127.9688,440.5,127.9688,428.5,115.9688,440.5,103.9688" style="stroke: #A80036; stroke-width: 1.5;"/><text fill="#000000" font-family="sans-serif" font-size="11" lengthAdjust="spacingAndGlyphs" textLength="47" x="470" y="138.1792">no) stop</text><text fill="#000000" font-family="sans-serif" font-size="11" lengthAdjust="spacingAndGlyphs" textLength="90" x="470" y="150.9839">if (invalid state?</text><text fill="#000000" font-family="sans-serif" font-size="11" lengthAdjust="spacingAndGlyphs" textLength="389" x="470" y="163.7886">(not playing, winner, animating, superpower, cheat)) then (yes) stop</text><text fill="#000000" font-family="sans-serif" font-size="11" lengthAdjust="spacingAndGlyphs" textLength="273" x="470" y="176.5933">if (session.current_player != ai_index) then (yes</text><text fill="#000000" font-family="sans-serif" font-size="11" lengthAdjust="spacingAndGlyphs" textLength="51" x="440.5" y="119.7769">enabled?</text><rect fill="#FEFECE" filter="url(#fz0asdx50ug34)" height="33.9688" rx="12.5" ry="12.5" style="stroke: #A80036; stroke-width: 1.5;" width="98" x="417" y="346.4648"/><text fill="#000000" font-family="sans-serif" font-size="12" lengthAdjust="spacingAndGlyphs" textLength="78" x="427" y="367.6035">_start_turn()</text><ellipse cx="466" cy="419.9492" fill="#FFFFFF" filter="url(#fz0asdx50ug34)" rx="11" ry="11" style="stroke: #000000; stroke-width: 1.0;"/><ellipse cx="466" cy="419.9492" fill="#000000" rx="6" ry="6" style="stroke: #7F7F7F; stroke-width: 1.0;"/><polygon fill="#FEFECE" filter="url(#fz0asdx50ug34)" points="432,298.0625,500,298.0625,512,310.0625,500,322.0625,432,322.0625,420,310.0625,432,298.0625" style="stroke: #A80036; stroke-width: 1.5;"/><text fill="#000000" font-family="sans-serif" font-size="11" lengthAdjust="spacingAndGlyphs" textLength="14" x="470" y="332.2729">no</text><text fill="#000000" font-family="sans-serif" font-size="11" lengthAdjust="spacingAndGlyphs" textLength="68" x="432" y="313.8706">turn_active?</text><polygon fill="#FEFECE" filter="url(#fz0asdx50ug34)" points="76,472.9492,197,472.9492,209,484.9492,197,496.9492,76,496.9492,64,484.9492,76,472.9492" style="stroke: #A80036; stroke-width: 1.5;"/><text fill="#000000" font-family="sans-serif" font-size="11" lengthAdjust="spacingAndGlyphs" textLength="20" x="140.5" y="507.1597">yes</text><text fill="#000000" font-family="sans-serif" font-size="11" lengthAdjust="spacingAndGlyphs" textLength="121" x="76" y="488.7573">_phase == "thinking"</text><rect fill="#FEFECE" filter="url(#fz0asdx50ug34)" height="33.9688" rx="12.5" ry="12.5" style="stroke: #A80036; stroke-width: 1.5;" width="87" x="93" y="528.6597"/><text fill="#000000" font-family="sans-serif" font-size="12" lengthAdjust="spacingAndGlyphs" textLength="67" x="103" y="549.7983">timer -= dt</text><rect fill="#FEFECE" filter="url(#fz0asdx50ug34)" height="33.9688" rx="12.5" ry="12.5" style="stroke: #A80036; stroke-width: 1.5;" width="253" x="10" y="646.0308"/><text fill="#000000" font-family="sans-serif" font-size="12" lengthAdjust="spacingAndGlyphs" textLength="233" x="20" y="667.1694">_plan = ShotPlanner.find_best_shot()</text><rect fill="#FEFECE" filter="url(#fz0asdx50ug34)" height="47.9375" rx="12.5" ry="12.5" style="stroke: #A80036; stroke-width: 1.5;" width="138" x="67.5" y="714.9995"/><text fill="#000000" font-family="sans-serif" font-size="12" lengthAdjust="spacingAndGlyphs" textLength="118" x="77.5" y="736.1382">_phase = "aiming";</text><text fill="#000000" font-family="sans-serif" font-size="12" lengthAdjust="spacingAndGlyphs" textLength="85" x="77.5" y="750.1069">_timer = jitter</text><polygon fill="#FEFECE" filter="url(#fz0asdx50ug34)" points="105,597.6284,168,597.6284,180,609.6284,168,621.6284,105,621.6284,93,609.6284,105,597.6284" style="stroke: #A80036; stroke-width: 1.5;"/><text fill="#000000" font-family="sans-serif" font-size="11" lengthAdjust="spacingAndGlyphs" textLength="20" x="140.5" y="631.8389">yes</text><text fill="#000000" font-family="sans-serif" font-size="11" lengthAdjust="spacingAndGlyphs" textLength="63" x="105" y="613.4365">timer &lt;= 0</text><polygon fill="#FEFECE" filter="url(#fz0asdx50ug34)" points="136.5,787.3394,148.5,799.3394,136.5,811.3394,124.5,799.3394,136.5,787.3394" style="stroke: #A80036; stroke-width: 1.5;"/><polygon fill="#FEFECE" filter="url(#fz0asdx50ug34)" points="309,472.9492,424,472.9492,436,484.9492,424,496.9492,309,496.9492,297,484.9492,309,472.9492" style="stroke: #A80036; stroke-width: 1.5;"/><text fill="#000000" font-family="sans-serif" font-size="11" lengthAdjust="spacingAndGlyphs" textLength="20" x="370.5" y="507.1597">yes</text><text fill="#000000" font-family="sans-serif" font-size="11" lengthAdjust="spacingAndGlyphs" textLength="115" x="309" y="488.7573">_phase == "aiming"</text><rect fill="#FEFECE" filter="url(#fz0asdx50ug34)" height="33.9688" rx="12.5" ry="12.5" style="stroke: #A80036; stroke-width: 1.5;" width="87" x="323" y="528.6597"/><text fill="#000000" font-family="sans-serif" font-size="12" lengthAdjust="spacingAndGlyphs" textLength="67" x="333" y="549.7983">timer -= dt</text><rect fill="#FEFECE" filter="url(#fz0asdx50ug34)" height="33.9688" rx="12.5" ry="12.5" style="stroke: #A80036; stroke-width: 1.5;" width="102" x="315.5" y="646.0308"/><text fill="#000000" font-family="sans-serif" font-size="12" lengthAdjust="spacingAndGlyphs" textLength="82" x="325.5" y="667.1694">_apply_plan()</text><rect fill="#FEFECE" filter="url(#fz0asdx50ug34)" height="47.9375" rx="12.5" ry="12.5" style="stroke: #A80036; stroke-width: 1.5;" width="128" x="302.5" y="714.9995"/><text fill="#000000" font-family="sans-serif" font-size="12" lengthAdjust="spacingAndGlyphs" textLength="108" x="312.5" y="736.1382">_phase = "firing";</text><text fill="#000000" font-family="sans-serif" font-size="12" lengthAdjust="spacingAndGlyphs" textLength="85" x="312.5" y="750.1069">_timer = jitter</text><polygon fill="#FEFECE" filter="url(#fz0asdx50ug34)" points="335,597.6284,398,597.6284,410,609.6284,398,621.6284,335,621.6284,323,609.6284,335,597.6284" style="stroke: #A80036; stroke-width: 1.5;"/><text fill="#000000" font-family="sans-serif" font-size="11" lengthAdjust="spacingAndGlyphs" textLength="20" x="370.5" y="631.8389">yes</text><text fill="#000000" font-family="sans-serif" font-size="11" lengthAdjust="spacingAndGlyphs" textLength="63" x="335" y="613.4365">timer &lt;= 0</text><polygon fill="#FEFECE" filter="url(#fz0asdx50ug34)" points="366.5,787.3394,378.5,799.3394,366.5,811.3394,354.5,799.3394,366.5,787.3394" style="stroke: #A80036; stroke-width: 1.5;"/><polygon fill="#FEFECE" filter="url(#fz0asdx50ug34)" points="498,472.9492,604,472.9492,616,484.9492,604,496.9492,498,496.9492,486,484.9492,498,472.9492" style="stroke: #A80036; stroke-width: 1.5;"/><text fill="#000000" font-family="sans-serif" font-size="11" lengthAdjust="spacingAndGlyphs" textLength="20" x="555" y="507.1597">yes</text><text fill="#000000" font-family="sans-serif" font-size="11" lengthAdjust="spacingAndGlyphs" textLength="106" x="498" y="488.7573">_phase == "firing"</text><rect fill="#FEFECE" filter="url(#fz0asdx50ug34)" height="33.9688" rx="12.5" ry="12.5" style="stroke: #A80036; stroke-width: 1.5;" width="87" x="507.5" y="528.6597"/><text fill="#000000" font-family="sans-serif" font-size="12" lengthAdjust="spacingAndGlyphs" textLength="67" x="517.5" y="549.7983">timer -= dt</text><rect fill="#FEFECE" filter="url(#fz0asdx50ug34)" height="33.9688" rx="12.5" ry="12.5" style="stroke: #A80036; stroke-width: 1.5;" width="56" x="523" y="646.0308"/><text fill="#000000" font-family="sans-serif" font-size="12" lengthAdjust="spacingAndGlyphs" textLength="36" x="533" y="667.1694">_fire()</text><rect fill="#FEFECE" filter="url(#fz0asdx50ug34)" height="33.9688" rx="12.5" ry="12.5" style="stroke: #A80036; stroke-width: 1.5;" width="137" x="482.5" y="714.9995"/><text fill="#000000" font-family="sans-serif" font-size="12" lengthAdjust="spacingAndGlyphs" textLength="117" x="492.5" y="736.1382">_phase = "waiting"</text><polygon fill="#FEFECE" filter="url(#fz0asdx50ug34)" points="519.5,597.6284,582.5,597.6284,594.5,609.6284,582.5,621.6284,519.5,621.6284,507.5,609.6284,519.5,597.6284" style="stroke: #A80036; stroke-width: 1.5;"/><text fill="#000000" font-family="sans-serif" font-size="11" lengthAdjust="spacingAndGlyphs" textLength="20" x="555" y="631.8389">yes</text><text fill="#000000" font-family="sans-serif" font-size="11" lengthAdjust="spacingAndGlyphs" textLength="63" x="519.5" y="613.4365">timer &lt;= 0</text><polygon fill="#FEFECE" filter="url(#fz0asdx50ug34)" points="551,773.3706,563,785.3706,551,797.3706,539,785.3706,551,773.3706" style="stroke: #A80036; stroke-width: 1.5;"/><polygon fill="#FEFECE" filter="url(#fz0asdx50ug34)" points="713.5,472.9492,830.5,472.9492,842.5,484.9492,830.5,496.9492,713.5,496.9492,701.5,484.9492,713.5,472.9492" style="stroke: #A80036; stroke-width: 1.5;"/><text fill="#000000" font-family="sans-serif" font-size="11" lengthAdjust="spacingAndGlyphs" textLength="20" x="776" y="507.1597">yes</text><text fill="#000000" font-family="sans-serif" font-size="11" lengthAdjust="spacingAndGlyphs" textLength="117" x="713.5" y="488.7573">_phase == "waiting"</text><rect fill="#FEFECE" filter="url(#fz0asdx50ug34)" height="33.9688" rx="12.5" ry="12.5" style="stroke: #A80036; stroke-width: 1.5;" width="95" x="724.5" y="577.062"/><text fill="#000000" font-family="sans-serif" font-size="12" lengthAdjust="spacingAndGlyphs" textLength="75" x="734.5" y="598.2007">reset_turn()</text><polygon fill="#FEFECE" filter="url(#fz0asdx50ug34)" points="673.5,528.6597,870.5,528.6597,882.5,540.6597,870.5,552.6597,673.5,552.6597,661.5,540.6597,673.5,528.6597" style="stroke: #A80036; stroke-width: 1.5;"/><text fill="#000000" font-family="sans-serif" font-size="11" lengthAdjust="spacingAndGlyphs" textLength="20" x="776" y="562.8701">yes</text><text fill="#000000" font-family="sans-serif" font-size="11" lengthAdjust="spacingAndGlyphs" textLength="197" x="673.5" y="544.4678">session.current_player != ai_index</text><polygon fill="#FEFECE" filter="url(#fz0asdx50ug34)" points="772,635.4331,784,647.4331,772,659.4331,760,647.4331,772,635.4331" style="stroke: #A80036; stroke-width: 1.5;"/><ellipse cx="466" cy="862.3394" fill="#FFFFFF" filter="url(#fz0asdx50ug34)" rx="11" ry="11" style="stroke: #000000; stroke-width: 1.0;"/><ellipse cx="466" cy="862.3394" fill="#000000" rx="6" ry="6" style="stroke: #7F7F7F; stroke-width: 1.0;"/><line style="stroke: #A80036; stroke-width: 1.5;" x1="466" x2="466" y1="30" y2="50"/><polygon fill="#A80036" points="462,40,466,50,470,40,466,44" style="stroke: #A80036; stroke-width: 1.0;"/><line style="stroke: #A80036; stroke-width: 1.5;" x1="466" x2="466" y1="205.5469" y2="234.0625"/><polygon fill="#A80036" points="462,224.0625,466,234.0625,470,224.0625,466,228.0625" style="stroke: #A80036; stroke-width: 1.0;"/><line style="stroke: #A80036; stroke-width: 1.5;" x1="466" x2="466" y1="127.9688" y2="171.5781"/><polygon fill="#A80036" points="462,161.5781,466,171.5781,470,161.5781,466,165.5781" style="stroke: #A80036; stroke-width: 1.0;"/><line style="stroke: #A80036; stroke-width: 1.5;" x1="503.5" x2="523.5" y1="115.9688" y2="115.9688"/><polygon fill="#A80036" points="519.5,204.0625,523.5,214.0625,527.5,204.0625,523.5,208.0625" style="stroke: #A80036; stroke-width: 1.5;"/><line style="stroke: #A80036; stroke-width: 1.5;" x1="523.5" x2="523.5" y1="115.9688" y2="278.0625"/><line style="stroke: #A80036; stroke-width: 1.5;" x1="523.5" x2="466" y1="278.0625" y2="278.0625"/><line style="stroke: #A80036; stroke-width: 1.5;" x1="466" x2="466" y1="278.0625" y2="298.0625"/><polygon fill="#A80036" points="462,288.0625,466,298.0625,470,288.0625,466,292.0625" style="stroke: #A80036; stroke-width: 1.0;"/><line style="stroke: #A80036; stroke-width: 1.5;" x1="466" x2="466" y1="83.9688" y2="103.9688"/><polygon fill="#A80036" points="462,93.9688,466,103.9688,470,93.9688,466,97.9688" style="stroke: #A80036; stroke-width: 1.0;"/><line style="stroke: #A80036; stroke-width: 1.5;" x1="466" x2="466" y1="380.4336" y2="408.9492"/><polygon fill="#A80036" points="462,398.9492,466,408.9492,470,398.9492,466,402.9492" style="stroke: #A80036; stroke-width: 1.0;"/><line style="stroke: #A80036; stroke-width: 1.5;" x1="466" x2="466" y1="322.0625" y2="346.4648"/><polygon fill="#A80036" points="462,336.4648,466,346.4648,470,336.4648,466,340.4648" style="stroke: #A80036; stroke-width: 1.0;"/><line style="stroke: #A80036; stroke-width: 1.5;" x1="512" x2="525" y1="310.0625" y2="310.0625"/><polygon fill="#A80036" points="521,378.9492,525,388.9492,529,378.9492,525,382.9492" style="stroke: #A80036; stroke-width: 1.5;"/><line style="stroke: #A80036; stroke-width: 1.5;" x1="525" x2="525" y1="310.0625" y2="452.9492"/><line style="stroke: #A80036; stroke-width: 1.5;" x1="525" x2="466" y1="452.9492" y2="452.9492"/><line style="stroke: #A80036; stroke-width: 1.5;" x1="466" x2="466" y1="452.9492" y2="457.9492"/><line style="stroke: #A80036; stroke-width: 1.5;" x1="136.5" x2="136.5" y1="679.9995" y2="714.9995"/><polygon fill="#A80036" points="132.5,704.9995,136.5,714.9995,140.5,704.9995,136.5,708.9995" style="stroke: #A80036; stroke-width: 1.0;"/><line style="stroke: #A80036; stroke-width: 1.5;" x1="136.5" x2="136.5" y1="621.6284" y2="646.0308"/><polygon fill="#A80036" points="132.5,636.0308,136.5,646.0308,140.5,636.0308,136.5,640.0308" style="stroke: #A80036; stroke-width: 1.0;"/><line style="stroke: #A80036; stroke-width: 1.5;" x1="180" x2="273" y1="609.6284" y2="609.6284"/><polygon fill="#A80036" points="269,694.4839,273,704.4839,277,694.4839,273,698.4839" style="stroke: #A80036; stroke-width: 1.5;"/><line style="stroke: #A80036; stroke-width: 1.5;" x1="273" x2="273" y1="609.6284" y2="799.3394"/><line style="stroke: #A80036; stroke-width: 1.5;" x1="273" x2="148.5" y1="799.3394" y2="799.3394"/><polygon fill="#A80036" points="158.5,795.3394,148.5,799.3394,158.5,803.3394,154.5,799.3394" style="stroke: #A80036; stroke-width: 1.0;"/><line style="stroke: #A80036; stroke-width: 1.5;" x1="136.5" x2="136.5" y1="762.937" y2="787.3394"/><polygon fill="#A80036" points="132.5,777.3394,136.5,787.3394,140.5,777.3394,136.5,781.3394" style="stroke: #A80036; stroke-width: 1.0;"/><line style="stroke: #A80036; stroke-width: 1.5;" x1="136.5" x2="136.5" y1="562.6284" y2="597.6284"/><polygon fill="#A80036" points="132.5,587.6284,136.5,597.6284,140.5,587.6284,136.5,591.6284" style="stroke: #A80036; stroke-width: 1.0;"/><line style="stroke: #A80036; stroke-width: 1.5;" x1="366.5" x2="366.5" y1="679.9995" y2="714.9995"/><polygon fill="#A80036" points="362.5,704.9995,366.5,714.9995,370.5,704.9995,366.5,708.9995" style="stroke: #A80036; stroke-width: 1.0;"/><line style="stroke: #A80036; stroke-width: 1.5;" x1="366.5" x2="366.5" y1="621.6284" y2="646.0308"/><polygon fill="#A80036" points="362.5,636.0308,366.5,646.0308,370.5,636.0308,366.5,640.0308" style="stroke: #A80036; stroke-width: 1.0;"/><line style="stroke: #A80036; stroke-width: 1.5;" x1="410" x2="440.5" y1="609.6284" y2="609.6284"/><polygon fill="#A80036" points="436.5,694.4839,440.5,704.4839,444.5,694.4839,440.5,698.4839" style="stroke: #A80036; stroke-width: 1.5;"/><line style="stroke: #A80036; stroke-width: 1.5;" x1="440.5" x2="440.5" y1="609.6284" y2="799.3394"/><line style="stroke: #A80036; stroke-width: 1.5;" x1="440.5" x2="378.5" y1="799.3394" y2="799.3394"/><polygon fill="#A80036" points="388.5,795.3394,378.5,799.3394,388.5,803.3394,384.5,799.3394" style="stroke: #A80036; stroke-width: 1.0;"/><line style="stroke: #A80036; stroke-width: 1.5;" x1="366.5" x2="366.5" y1="762.937" y2="787.3394"/><polygon fill="#A80036" points="362.5,777.3394,366.5,787.3394,370.5,777.3394,366.5,781.3394" style="stroke: #A80036; stroke-width: 1.0;"/><line style="stroke: #A80036; stroke-width: 1.5;" x1="366.5" x2="366.5" y1="562.6284" y2="597.6284"/><polygon fill="#A80036" points="362.5,587.6284,366.5,597.6284,370.5,587.6284,366.5,591.6284" style="stroke: #A80036; stroke-width: 1.0;"/><line style="stroke: #A80036; stroke-width: 1.5;" x1="551" x2="551" y1="679.9995" y2="714.9995"/><polygon fill="#A80036" points="547,704.9995,551,714.9995,555,704.9995,551,708.9995" style="stroke: #A80036; stroke-width: 1.0;"/><line style="stroke: #A80036; stroke-width: 1.5;" x1="551" x2="551" y1="621.6284" y2="646.0308"/><polygon fill="#A80036" points="547,636.0308,551,646.0308,555,636.0308,551,640.0308" style="stroke: #A80036; stroke-width: 1.0;"/><line style="stroke: #A80036; stroke-width: 1.5;" x1="594.5" x2="629.5" y1="609.6284" y2="609.6284"/><polygon fill="#A80036" points="625.5,687.4995,629.5,697.4995,633.5,687.4995,629.5,691.4995" style="stroke: #A80036; stroke-width: 1.5;"/><line style="stroke: #A80036; stroke-width: 1.5;" x1="629.5" x2="629.5" y1="609.6284" y2="785.3706"/><line style="stroke: #A80036; stroke-width: 1.5;" x1="629.5" x2="563" y1="785.3706" y2="785.3706"/><polygon fill="#A80036" points="573,781.3706,563,785.3706,573,789.3706,569,785.3706" style="stroke: #A80036; stroke-width: 1.0;"/><line style="stroke: #A80036; stroke-width: 1.5;" x1="551" x2="551" y1="748.9683" y2="773.3706"/><polygon fill="#A80036" points="547,763.3706,551,773.3706,555,763.3706,551,767.3706" style="stroke: #A80036; stroke-width: 1.0;"/><line style="stroke: #A80036; stroke-width: 1.5;" x1="551" x2="551" y1="562.6284" y2="597.6284"/><polygon fill="#A80036" points="547,587.6284,551,597.6284,555,587.6284,551,591.6284" style="stroke: #A80036; stroke-width: 1.0;"/><line style="stroke: #A80036; stroke-width: 1.5;" x1="772" x2="772" y1="552.6597" y2="577.062"/><polygon fill="#A80036" points="768,567.062,772,577.062,776,567.062,772,571.062" style="stroke: #A80036; stroke-width: 1.0;"/><line style="stroke: #A80036; stroke-width: 1.5;" x1="882.5" x2="894.5" y1="540.6597" y2="540.6597"/><polygon fill="#A80036" points="890.5,584.0464,894.5,594.0464,898.5,584.0464,894.5,588.0464" style="stroke: #A80036; stroke-width: 1.5;"/><line style="stroke: #A80036; stroke-width: 1.5;" x1="894.5" x2="894.5" y1="540.6597" y2="647.4331"/><line style="stroke: #A80036; stroke-width: 1.5;" x1="894.5" x2="784" y1="647.4331" y2="647.4331"/><polygon fill="#A80036" points="794,643.4331,784,647.4331,794,651.4331,790,647.4331" style="stroke: #A80036; stroke-width: 1.0;"/><line style="stroke: #A80036; stroke-width: 1.5;" x1="772" x2="772" y1="611.0308" y2="635.4331"/><polygon fill="#A80036" points="768,625.4331,772,635.4331,776,625.4331,772,629.4331" style="stroke: #A80036; stroke-width: 1.0;"/><line style="stroke: #A80036; stroke-width: 1.5;" x1="136.5" x2="136.5" y1="496.9492" y2="528.6597"/><polygon fill="#A80036" points="132.5,518.6597,136.5,528.6597,140.5,518.6597,136.5,522.6597" style="stroke: #A80036; stroke-width: 1.0;"/><line style="stroke: #A80036; stroke-width: 1.5;" x1="136.5" x2="136.5" y1="811.3394" y2="831.3394"/><polygon fill="#A80036" points="132.5,821.3394,136.5,831.3394,140.5,821.3394,136.5,825.3394" style="stroke: #A80036; stroke-width: 1.0;"/><line style="stroke: #A80036; stroke-width: 1.5;" x1="366.5" x2="366.5" y1="496.9492" y2="528.6597"/><polygon fill="#A80036" points="362.5,518.6597,366.5,528.6597,370.5,518.6597,366.5,522.6597" style="stroke: #A80036; stroke-width: 1.0;"/><line style="stroke: #A80036; stroke-width: 1.5;" x1="366.5" x2="366.5" y1="811.3394" y2="831.3394"/><polygon fill="#A80036" points="362.5,821.3394,366.5,831.3394,370.5,821.3394,366.5,825.3394" style="stroke: #A80036; stroke-width: 1.0;"/><line style="stroke: #A80036; stroke-width: 1.5;" x1="551" x2="551" y1="496.9492" y2="528.6597"/><polygon fill="#A80036" points="547,518.6597,551,528.6597,555,518.6597,551,522.6597" style="stroke: #A80036; stroke-width: 1.0;"/><line style="stroke: #A80036; stroke-width: 1.5;" x1="551" x2="551" y1="797.3706" y2="831.3394"/><polygon fill="#A80036" points="547,821.3394,551,831.3394,555,821.3394,551,825.3394" style="stroke: #A80036; stroke-width: 1.0;"/><line style="stroke: #A80036; stroke-width: 1.5;" x1="772" x2="772" y1="496.9492" y2="528.6597"/><polygon fill="#A80036" points="768,518.6597,772,528.6597,776,518.6597,772,522.6597" style="stroke: #A80036; stroke-width: 1.0;"/><line style="stroke: #A80036; stroke-width: 1.5;" x1="772" x2="772" y1="659.4331" y2="831.3394"/><polygon fill="#A80036" points="768,821.3394,772,831.3394,776,821.3394,772,825.3394" style="stroke: #A80036; stroke-width: 1.0;"/><line style="stroke: #A80036; stroke-width: 1.5;" x1="209" x2="297" y1="484.9492" y2="484.9492"/><polygon fill="#A80036" points="287,480.9492,297,484.9492,287,488.9492,291,484.9492" style="stroke: #A80036; stroke-width: 1.0;"/><line style="stroke: #A80036; stroke-width: 1.5;" x1="436" x2="486" y1="484.9492" y2="484.9492"/><polygon fill="#A80036" points="476,480.9492,486,484.9492,476,488.9492,480,484.9492" style="stroke: #A80036; stroke-width: 1.0;"/><line style="stroke: #A80036; stroke-width: 1.5;" x1="616" x2="701.5" y1="484.9492" y2="484.9492"/><polygon fill="#A80036" points="691.5,480.9492,701.5,484.9492,691.5,488.9492,695.5,484.9492" style="stroke: #A80036; stroke-width: 1.0;"/><line style="stroke: #A80036; stroke-width: 1.5;" x1="466" x2="136.5" y1="457.9492" y2="457.9492"/><line style="stroke: #A80036; stroke-width: 1.5;" x1="136.5" x2="136.5" y1="457.9492" y2="472.9492"/><polygon fill="#A80036" points="132.5,462.9492,136.5,472.9492,140.5,462.9492,136.5,466.9492" style="stroke: #A80036; stroke-width: 1.0;"/><line style="stroke: #A80036; stroke-width: 1.5;" x1="842.5" x2="912.5" y1="484.9492" y2="484.9492"/><line style="stroke: #A80036; stroke-width: 1.5;" x1="912.5" x2="912.5" y1="484.9492" y2="831.3394"/><polygon fill="#A80036" points="908.5,821.3394,912.5,831.3394,916.5,821.3394,912.5,825.3394" style="stroke: #A80036; stroke-width: 1.0;"/><line style="stroke: #A80036; stroke-width: 1.5;" x1="136.5" x2="912.5" y1="831.3394" y2="831.3394"/><line style="stroke: #A80036; stroke-width: 1.5;" x1="466" x2="466" y1="831.3394" y2="851.3394"/><polygon fill="#A80036" points="462,841.3394,466,851.3394,470,841.3394,466,845.3394" style="stroke: #A80036; stroke-width: 1.0;"/><!--MD5=[ce15ae8a3c552d486e5ddf801d47e8de]
@startuml AITurn
start
:ComputerOpponent.update(dt);
if (enabled?) then (no) stop
if (invalid state?\n(not playing, winner, animating, superpower, cheat)) then (yes) stop
if (session.current_player != ai_index) then (yes)
  :reset_turn();
  stop
endif
if (turn_active?) then (no)
  :_start_turn();
  stop
endif
if (_phase == "thinking") then (yes)
  :timer -= dt;
  if (timer <= 0) then (yes)
    :_plan = ShotPlanner.find_best_shot();
    :_phase = "aiming";\n_timer = jitter;
  endif
elseif (_phase == "aiming") then (yes)
  :timer -= dt;
  if (timer <= 0) then (yes)
    :_apply_plan();
    :_phase = "firing";\n_timer = jitter;
  endif
elseif (_phase == "firing") then (yes)
  :timer -= dt;
  if (timer <= 0) then (yes)
    :_fire();
    :_phase = "waiting";
  endif
elseif (_phase == "waiting") then (yes)
  if (session.current_player != ai_index) then (yes)
    :reset_turn();
  endif
endif
stop
@enduml

PlantUML version 1.2020.02(Sun Mar 01 11:22:07 CET 2020)
(GPL source distribution)
Java Runtime: OpenJDK Runtime Environment
JVM: OpenJDK 64-Bit Server VM
Java Version: 21.0.8+9-Ubuntu-0ubuntu124.04.1
Operating System: Linux
Default Encoding: UTF-8
Language: en
Country: null
--></g></svg>